<svg width="16" height="16" viewBox="0 0 16 16" fill="none" xmlns="http://www.w3.org/2000/svg">
<path fill-rule="evenodd" clip-rule="evenodd" d="M9.00161 6.70117L8.98675 0.707524C8.98713 0.431953 8.78073 0.225555 8.50516 0.225927L7.56365 0.204237C7.28808 0.20461 7.08112 0.411569 7.08075 0.68714L7.07261 6.70378C7.07236 6.88749 6.93439 7.02546 6.75067 7.02571L0.711103 7.01092C0.435532 7.01129 0.228574 7.21825 0.228201 7.49382L0.226896 8.45832C0.226523 8.73389 0.432922 8.94029 0.708493 8.93992L6.72513 8.93178C6.90884 8.93153 7.04644 9.06913 7.04619 9.25284L7.03799 15.3154C7.03762 15.591 7.24402 15.7974 7.51959 15.797L8.48409 15.7957C8.75966 15.7953 8.96662 15.5884 8.96699 15.3128L8.97513 9.29616C8.97538 9.11245 9.11335 8.97447 9.29707 8.97423L15.3137 8.96608C15.5893 8.96571 15.7962 8.75875 15.7966 8.48318L15.7979 7.51868C15.7983 7.24311 15.5919 7.03671 15.3163 7.03708L9.32267 7.02223C9.13896 7.02248 9.00136 6.88488 9.00161 6.70117Z" fill="#FFFDFA"/>
</svg>
