<svg width="16" height="16" viewBox="0 0 16 16" fill="none" xmlns="http://www.w3.org/2000/svg"><path d="M16 7.666V4.674a.519.519 0 0 0-.16-.372.552.552 0 0 0-.383-.155H10.56V.527a.519.519 0 0 0-.159-.373.552.552 0 0 0-.384-.154H6.009a.552.552 0 0 0-.384.154.519.519 0 0 0-.16.373v3.622H.545a.552.552 0 0 0-.385.154.519.519 0 0 0-.159.372v2.992h16zM14.688 8.72H1.272l.007 4.085-.51 2.568a.513.513 0 0 0 .116.435.543.543 0 0 0 .418.192h3.13v-3.424c0-.14.057-.273.16-.372a.552.552 0 0 1 .768 0c.102.099.159.232.159.372V16h1.936v-3.424c0-.14.057-.273.16-.372a.552.552 0 0 1 .768 0c.102.099.159.232.159.372V16h1.936v-3.424c0-.14.057-.273.16-.372a.552.552 0 0 1 .768 0c.102.099.159.232.159.372V16h3.155a.556.556 0 0 0 .425-.196.52.52 0 0 0 .106-.444l-.565-2.48V8.72h.001z" fill="#8E8E8E"/></svg>