<svg width="12" height="12" viewBox="0 0 12 12" fill="none" xmlns="http://www.w3.org/2000/svg">
<path fill-rule="evenodd" clip-rule="evenodd" d="M6 12C9.31371 12 12 9.31371 12 6C12 2.68629 9.31371 0 6 0C2.68629 0 0 2.68629 0 6C0 9.31371 2.68629 12 6 12ZM6.83074 4.74008C6.83074 4.84526 6.85712 4.95044 6.93624 5.02932L8.41316 6.52809C8.5714 6.68585 8.5714 6.9225 8.41316 7.08027L7.85931 7.63244C7.70107 7.79021 7.46371 7.79021 7.30547 7.63244L5.35382 5.68667C5.30107 5.60779 5.24833 5.50261 5.24833 5.39744V2.21584C5.24833 2.00549 5.43294 1.82143 5.64393 1.82143H6.43514C6.64613 1.82143 6.83074 2.00549 6.83074 2.21584V4.74008Z" fill="#FFFDFA"/>
</svg>
