<svg width="24" height="24" viewBox="0 0 24 24" fill="none" xmlns="http://www.w3.org/2000/svg">
<path fill-rule="evenodd" clip-rule="evenodd" d="M17.0282 14.075C16.6907 16.7413 14.5307 18.4625 12.6744 18.4625H8.62443C6.59942 18.4625 4.23692 16.4375 4.23692 13.4V8.675C4.23692 8.30375 4.54067 8 4.91192 8H18.0745C19.1882 8 20.0995 8.91125 20.0995 10.025V12.05C20.0995 13.1638 19.1882 14.075 18.0745 14.075H17.0282ZM16.927 19.475C17.1632 19.475 17.3995 19.7113 17.3995 19.9475V19.9813C17.3995 20.825 16.7245 21.5 15.9145 21.5H5.38442C4.57442 21.5 3.89941 20.825 3.89941 19.9813V19.9475C3.89941 19.7113 4.13566 19.475 4.37192 19.475H16.927ZM17.062 9.68751V12.3875H17.737C18.1082 12.3875 18.412 12.0838 18.412 11.7125V10.3625C18.412 9.99126 18.1082 9.68751 17.737 9.68751H17.062Z" fill="#FFB75D"/>
<path d="M12.2983 6.99497C12.2983 6.99497 12.2728 6.96416 12.2221 6.91074C11.9255 6.59781 12.026 6.15981 12.2502 5.83997C12.4454 5.56152 12.7355 5.33407 13.0167 5.10662C13.6806 4.56955 14.3307 3.99194 14.6642 3.28771C14.9651 2.65218 14.9814 1.92446 14.6449 1.30026C14.3136 0.685593 13.5426 0.0792928 12.6681 0.00975177C12.5827 0.00134357 12.5371 0 12.5371 0C12.5371 0 12.5585 0.0336761 12.5989 0.0909299C12.914 0.537453 13.1453 1.05692 13.1201 1.57409C13.0947 2.09475 12.8075 2.58585 12.46 3.02799C12.1125 3.47014 11.6999 3.87969 11.3804 4.33495C11.061 4.79018 10.835 5.30852 10.907 5.82643C10.9701 6.28045 11.4643 7.0441 12.1676 6.99801C12.2519 6.99753 12.2983 6.99497 12.2983 6.99497Z" fill="#FFB75D"/>
<path d="M7.96082 6.99641C7.96082 6.99641 7.94165 6.9744 7.90367 6.93624C7.68117 6.71272 7.75657 6.39986 7.92473 6.17141C8.07111 5.97252 8.28867 5.81005 8.49955 5.64758C8.99749 5.26397 9.48511 4.85139 9.73518 4.34837C9.96085 3.89441 9.9731 3.37461 9.72076 2.92876C9.47227 2.48971 8.89399 2.05664 8.23815 2.00697C8.17406 2.00096 8.13985 2 8.13985 2C8.13985 2 8.15597 2.02405 8.18627 2.06495C8.42255 2.38389 8.59607 2.75494 8.57712 3.12435C8.55805 3.49625 8.3427 3.84703 8.08209 4.16285C7.82147 4.47867 7.51198 4.77121 7.2724 5.09639C7.03279 5.42156 6.86329 5.7918 6.91731 6.16173C6.96466 6.48603 7.33528 7.0315 7.86274 6.99858C7.926 6.99823 7.96082 6.99641 7.96082 6.99641Z" fill="#FFB75D"/>
</svg>
