<svg width="24" height="24" viewBox="0 0 24 24" fill="none" xmlns="http://www.w3.org/2000/svg"><circle cx="12" cy="12" r="12" fill="#fff"/><path fill-rule="evenodd" clip-rule="evenodd" d="M19.463 6.425L13.097 2.75a2.194 2.194 0 0 0-2.194 0L4.537 6.425a2.194 2.194 0 0 0-1.097 1.9v7.35c0 .784.418 1.509 1.097 1.9l6.366 3.676a2.194 2.194 0 0 0 2.194 0l6.366-3.675a2.194 2.194 0 0 0 1.097-1.9v-7.35c0-.785-.418-1.509-1.097-1.9zm-5.896-4.49a3.134 3.134 0 0 0-3.134 0L4.067 5.612A3.134 3.134 0 0 0 2.5 8.325v7.35c0 1.12.597 2.155 1.567 2.715l6.366 3.675c.97.56 2.164.56 3.134 0l6.366-3.675a3.134 3.134 0 0 0 1.567-2.714v-7.35c0-1.12-.597-2.155-1.567-2.715l-6.366-3.675z" fill="#44D7B6"/><path fill-rule="evenodd" clip-rule="evenodd" d="M7.752 14.875l4.06 4.06L15.9 14.85l-1.355-1.355-2.716 2.716-1.35-1.35 2.716-2.716-1.356-1.356-4.086 4.086z" fill="#231916"/><path fill-rule="evenodd" clip-rule="evenodd" d="M11.86 5.322L6.412 10.77l.018 2.698 5.405-5.404 5.426 5.425.01-2.756-5.412-5.41z" fill="#38A0DA"/></svg>