<svg width="12" height="14" viewBox="0 0 12 14" fill="none" xmlns="http://www.w3.org/2000/svg"><path fill-rule="evenodd" clip-rule="evenodd" d="M10.91.454H3.817c-.6 0-1.09.491-1.09 1.091v.546h6.545c.6 0 1.09.49 1.09 1.09v7.637h.546c.6 0 1.091-.491 1.091-1.091V1.545c0-.6-.49-1.09-1.09-1.09zM9.272 4.272c0-.6-.491-1.09-1.091-1.09H1.091c-.6 0-1.091.49-1.091 1.09v8.182c0 .6.49 1.091 1.09 1.091h7.092c.6 0 1.09-.49 1.09-1.09V4.271zm-4.91 1.91c0 .163-.108.272-.272.272H1.91c-.163 0-.273-.109-.273-.273v-.545c0-.164.11-.273.273-.273h2.182c.164 0 .273.11.273.273v.545zm2.183 4.363c0 .164-.11.273-.273.273H1.909c-.163 0-.273-.109-.273-.273V10c0-.164.11-.273.273-.273h4.364c.164 0 .273.11.273.273v.545zm1.09-2.182c0 .164-.108.273-.272.273H1.909c-.163 0-.273-.11-.273-.273v-.545c0-.164.11-.273.273-.273h5.455c.164 0 .273.11.273.273v.545z" fill="#C2C4D0"/></svg>