<svg width="12" height="13" viewBox="0 0 12 13" fill="none" xmlns="http://www.w3.org/2000/svg">
<path fill-rule="evenodd" clip-rule="evenodd" d="M11.6137 7.00698H10.8644C10.6646 7.00698 10.4897 7.18182 10.4897 7.38164V10.1291C10.4897 10.3289 10.3149 10.5038 10.1151 10.5038H1.87264C1.67283 10.5038 1.49799 10.3289 1.49799 10.1291V4.88393C1.49799 4.68411 1.67283 4.50927 1.87264 4.50927H2.87173C3.07154 4.50927 3.24638 4.33443 3.24638 4.13461V3.3853C3.24638 3.18548 3.07154 3.01064 2.87173 3.01064H0.998444C0.448947 3.01064 -0.000640869 3.46023 -0.000640869 4.00973V11.0033C-0.000640869 11.5528 0.448947 12.0024 0.998444 12.0024H10.9893C11.5388 12.0024 11.9884 11.5528 11.9884 11.0033V7.38164C11.9884 7.18182 11.8135 7.00698 11.6137 7.00698ZM7.99192 3.00974C5.49421 3.00974 3.2213 5.2327 3.02148 7.8553C2.9965 8.05512 3.17134 8.25493 3.39614 8.25493H4.14545C4.34527 8.25493 4.49513 8.10507 4.52011 7.93023C4.69495 6.05695 6.29348 4.50837 8.2417 4.50837H8.64133C8.86612 4.50837 8.96603 4.78312 8.81617 4.93298L7.44243 6.3317C7.29257 6.48156 7.29257 6.70635 7.44243 6.85622L7.96695 7.38074C8.11681 7.5306 8.3416 7.5306 8.49147 7.38074L11.8884 4.00883C12.0382 3.85896 12.0382 3.63417 11.8884 3.48431L8.51644 0.112397C8.36658 -0.0374657 8.14179 -0.0374657 7.99192 0.112397L7.46741 0.636916C7.31754 0.786779 7.29257 1.01157 7.44243 1.16144L8.84115 2.56015C8.99101 2.71002 8.8911 2.98476 8.66631 2.98476L7.99192 3.00974Z" fill="#E14E28"/>
</svg>
