<svg width="12" height="13" viewBox="0 0 12 13" fill="none" xmlns="http://www.w3.org/2000/svg">
<g clip-path="url(#clip0_17612_8434)">
<path d="M4.92877 4.56445H10.9288C11.1016 4.56445 11.1786 4.68888 11.1788 4.7666V10.4814C11.1786 10.5592 11.1015 10.6836 10.9288 10.6836H4.92877C4.75604 10.6836 4.67899 10.5592 4.67877 10.4814V4.7666L4.69342 4.70215C4.72325 4.63436 4.79917 4.56445 4.92877 4.56445Z" stroke="#E14E28" stroke-width="1.5"/>
<path d="M8.00926 3.35407H6.51021V2.89454H1.51914V7.68122H3.4781V9.02694H1.07123C0.518943 9.02694 0.071228 8.57922 0.071228 8.02694V2.56641C0.071228 2.01412 0.518943 1.56641 1.07123 1.56641H7.00926C7.56154 1.56641 8.00926 2.01412 8.00926 2.56641V3.35407Z" fill="#E14E28"/>
</g>
<defs>
<clipPath id="clip0_17612_8434">
<rect width="12" height="13" fill="white"/>
</clipPath>
</defs>
</svg>
