<svg width="24" height="24" viewBox="0 0 24 24" fill="none" xmlns="http://www.w3.org/2000/svg">
<path fill-rule="evenodd" clip-rule="evenodd" d="M15.9783 12.8768C16.1348 13.0411 16.35 13.0411 16.5065 12.8768L19.3826 9.79765C19.5391 9.63343 19.5391 9.3871 19.3826 9.22287L16.5065 6.12317C16.35 5.95894 16.1348 5.95894 15.9783 6.12317L15.45 6.69795C15.2935 6.86217 15.2935 7.1085 15.45 7.27273L16.35 8.23754C16.5065 8.40176 16.4087 8.68915 16.1739 8.68915L10.8913 8.68915C10.6957 8.68915 10.5 8.8739 10.5 9.09971L10.5 9.92082C10.5 10.1466 10.7152 10.3314 10.8913 10.3314L16.1739 10.3314C16.4087 10.3314 16.5065 10.6188 16.35 10.783L15.45 11.7478C15.2935 11.912 15.2935 12.1584 15.45 12.3226L15.9783 12.8768Z" fill="#C2C4D0"/>
<path fill-rule="evenodd" clip-rule="evenodd" d="M8.02174 11.1232C7.86522 10.9589 7.65 10.9589 7.49348 11.1232L4.61739 14.2023C4.46087 14.3666 4.46087 14.6129 4.61739 14.7771L7.49348 17.8768C7.65 18.0411 7.86522 18.0411 8.02174 17.8768L8.55 17.3021C8.70652 17.1378 8.70652 16.8915 8.55 16.7273L7.65 15.7625C7.49348 15.5982 7.5913 15.3109 7.82609 15.3109L13.1087 15.3109C13.3043 15.3109 13.5 15.1261 13.5 14.9003L13.5 14.0792C13.5 13.8534 13.2848 13.6686 13.1087 13.6686L7.82609 13.6686C7.5913 13.6686 7.49348 13.3812 7.65 13.217L8.55 12.2522C8.70652 12.088 8.70652 11.8416 8.55 11.6774L8.02174 11.1232Z" fill="#C2C4D0"/>
</svg>
