<svg width="16" height="12" viewBox="0 0 16 12" fill="none" xmlns="http://www.w3.org/2000/svg"><path d="M13.003 1.506a12.093 12.093 0 0 0-2.939-.892.045.045 0 0 0-.047.022c-.127.22-.267.51-.366.736a11.222 11.222 0 0 0-3.3 0 7.38 7.38 0 0 0-.372-.736.047.047 0 0 0-.047-.022 12.058 12.058 0 0 0-2.939.892.042.042 0 0 0-.019.017C1.103 4.26.59 6.93.841 9.568a.048.048 0 0 0 .02.033 12.074 12.074 0 0 0 3.604 1.784.047.047 0 0 0 .05-.017c.278-.37.526-.762.738-1.174a.044.044 0 0 0-.025-.062 7.958 7.958 0 0 1-1.126-.526.045.045 0 0 1-.005-.075c.076-.055.152-.113.224-.172a.045.045 0 0 1 .047-.006c2.362 1.056 4.92 1.056 7.255 0a.045.045 0 0 1 .047.006c.072.058.148.117.224.172a.045.045 0 0 1-.004.075c-.36.206-.733.38-1.126.525a.045.045 0 0 0-.025.063c.217.411.464.803.737 1.174a.046.046 0 0 0 .05.017A12.034 12.034 0 0 0 15.138 9.6a.045.045 0 0 0 .019-.033c.301-3.049-.504-5.697-2.135-8.045a.036.036 0 0 0-.018-.017zM5.606 7.962c-.711 0-1.297-.64-1.297-1.425s.574-1.424 1.297-1.424c.728 0 1.309.645 1.297 1.424 0 .785-.574 1.425-1.297 1.425zm4.797 0c-.711 0-1.298-.64-1.298-1.425s.575-1.424 1.298-1.424c.728 0 1.309.645 1.297 1.424 0 .785-.569 1.425-1.297 1.425z" fill="#222"/></svg>