<svg width="24" height="24" viewBox="0 0 24 24" fill="none" xmlns="http://www.w3.org/2000/svg">
<path fill-rule="evenodd" clip-rule="evenodd" d="M16.9148 11.9327L12.2584 15.9135C12.1221 16.0288 11.8949 16.0288 11.7587 15.9135L7.10221 11.9327C6.96593 11.8173 6.96593 11.625 7.10221 11.5096L7.60193 11.0865C7.73822 10.9712 7.96536 10.9712 8.10165 11.0865L11.7587 14.2212C11.8949 14.3365 12.1221 14.3365 12.2584 14.2212L15.9154 11.1058C16.0517 10.9904 16.2788 10.9904 16.4151 11.1058L16.9148 11.5288C17.0284 11.6442 17.0284 11.8173 16.9148 11.9327Z" fill="#E14E28"/>
<path fill-rule="evenodd" clip-rule="evenodd" d="M16.9148 7.93269L12.2584 11.9135C12.1221 12.0288 11.8949 12.0288 11.7587 11.9135L7.10221 7.93269C6.96593 7.81731 6.96593 7.625 7.10221 7.50962L7.60193 7.08654C7.73822 6.97115 7.96536 6.97115 8.10165 7.08654L11.7587 10.2212C11.8949 10.3365 12.1221 10.3365 12.2584 10.2212L15.9154 7.10577C16.0517 6.99038 16.2788 6.99038 16.4151 7.10577L16.9148 7.52885C17.0284 7.64423 17.0284 7.81731 16.9148 7.93269Z" fill="#E14E28"/>
</svg>
