<svg width="14" height="10" viewBox="0 0 14 10" fill="none" xmlns="http://www.w3.org/2000/svg"><path fill-rule="evenodd" clip-rule="evenodd" d="M12.454.044c.4 0 .755.185.98.47L6.936 5.76.5.61C.714.27 1.103.044 1.546.044h10.908zM.32 8.776V1.54l4.62 3.695L.33 8.924a1.148 1.148 0 0 1-.01-.148zm.423.891c.215.18.496.289.803.289h10.908c.264 0 .508-.08.708-.217L8.255 5.775l-.883.713a.694.694 0 0 1-.864.002l-.896-.717L.743 9.667zM8.92 5.236l4.725 3.815c.022-.088.033-.18.033-.275V1.394L8.921 5.236z" fill="#222"/></svg>