<svg width="24" height="24" viewBox="0 0 24 24" fill="none" xmlns="http://www.w3.org/2000/svg">
<path fill-rule="evenodd" clip-rule="evenodd" d="M24 12C24 18.6274 18.6274 24 12 24C5.37256 24 0 18.6274 0 12C0 5.37256 5.37256 0 12 0C18.6274 0 24 5.37256 24 12ZM8.20959 6.2016C7.83301 5.82605 7.245 5.82605 6.86829 6.2016L6.23315 6.83502C5.85583 7.21136 5.85583 7.80017 6.23315 8.17651L10.0519 11.9849L6.203 15.8235C5.82556 16.1998 5.82556 16.7886 6.203 17.165L6.83813 17.7984C7.21472 18.174 7.80273 18.174 8.17932 17.7984L12 13.988L15.8207 17.7984C16.1973 18.174 16.7853 18.174 17.1619 17.7984L17.797 17.165C18.1742 16.7889 18.1744 16.2006 17.7977 15.8242L17.797 15.8235L14.0074 12.0151L17.797 8.20667L17.7977 8.20599C18.1727 7.8313 18.1742 7.24658 17.8021 6.87024L17.2008 6.24042L17.1921 6.23181C16.8156 5.8562 16.2275 5.8562 15.8508 6.23181L12.0308 10.0416L8.21094 6.20294L8.20959 6.2016Z" fill="#B80101"/>
</svg>
