<svg width="12" height="12" viewBox="0 0 12 12" fill="none" xmlns="http://www.w3.org/2000/svg"><path fill-rule="evenodd" clip-rule="evenodd" d="M7.512 5.804l3.932-3.951a.437.437 0 0 0 0-.634l-.605-.633a.44.44 0 0 0-.635 0L6.242 4.537a.293.293 0 0 1-.423 0L1.857.556a.44.44 0 0 0-.636 0l-.635.633a.437.437 0 0 0 0 .633l3.962 3.952a.291.291 0 0 1 0 .422L.556 10.178a.437.437 0 0 0 0 .633l.635.633a.44.44 0 0 0 .635 0l3.962-3.951a.293.293 0 0 1 .424 0l3.962 3.951a.44.44 0 0 0 .635 0l.635-.633a.437.437 0 0 0 0-.633L7.512 6.226a.291.291 0 0 1 0-.422z" fill="#B80101"/></svg>