<svg width="76" height="76" viewBox="0 0 76 76" fill="none" xmlns="http://www.w3.org/2000/svg"><path fill-rule="evenodd" clip-rule="evenodd" d="M48.163 36.682l26.422-26.554c1.22-1.216 1.22-3.04 0-4.256L70.52 1.615c-1.22-1.216-3.048-1.216-4.268 0L39.626 28.169c-.813.81-2.032.81-2.845 0L10.154 1.412C8.935.196 7.106.196 5.886 1.412L1.618 5.67c-1.22 1.216-1.22 3.04 0 4.257L28.244 36.48c.813.81.813 2.027 0 2.838L1.414 66.074c-1.219 1.216-1.219 3.04 0 4.257l4.269 4.257c1.22 1.216 3.049 1.216 4.268 0l26.626-26.554c.813-.811 2.033-.811 2.846 0l26.626 26.554c1.22 1.216 3.049 1.216 4.268 0l4.268-4.257c1.22-1.216 1.22-3.04 0-4.257L48.163 39.52c-.813-.81-.813-2.027 0-2.838z" fill="#C2C4D0"/></svg>