<svg width="43" height="33" viewBox="0 0 43 33" fill="none" xmlns="http://www.w3.org/2000/svg">
<path d="M0 6.00001C0 2.6863 2.68629 1.14441e-05 6 1.14441e-05L36.0139 0C39.3276 0 42.0139 2.68629 42.0139 6V18C42.0139 21.3137 39.3276 24 36.0139 24L5.99999 24C2.68629 24 0 21.3137 0 18V6.00001Z" fill="url(#paint0_linear_1409_5599)"/>
<path d="M14.479 24L0.00787845 32.5492L0.0078792 15.4508L14.479 24Z" fill="url(#paint1_linear_1409_5599)"/>
<path fill-rule="evenodd" clip-rule="evenodd" d="M21 18C24.3137 18 27 15.3137 27 12C27 8.68629 24.3137 6 21 6C17.6863 6 15 8.68629 15 12C15 15.3137 17.6863 18 21 18ZM21.8307 10.7401C21.8307 10.8453 21.8571 10.9504 21.9362 11.0293L23.4132 12.5281C23.5714 12.6859 23.5714 12.9225 23.4132 13.0803L22.8593 13.6324C22.7011 13.7902 22.4637 13.7902 22.3055 13.6324L20.3538 11.6867C20.3011 11.6078 20.2483 11.5026 20.2483 11.3974V8.21584C20.2483 8.00549 20.4329 7.82143 20.6439 7.82143H21.4351C21.6461 7.82143 21.8307 8.00549 21.8307 8.21584V10.7401Z" fill="#FFFDFA"/>
<defs>
<linearGradient id="paint0_linear_1409_5599" x1="-0.593603" y1="1.81959e-06" x2="44.6706" y2="4.2494" gradientUnits="userSpaceOnUse">
<stop stop-color="#EE9B27"/>
<stop offset="0.473958" stop-color="#E14D28"/>
<stop offset="0.958333" stop-color="#6F84B8"/>
</linearGradient>
<linearGradient id="paint1_linear_1409_5599" x1="-0.593603" y1="1.81959e-06" x2="44.6706" y2="4.2494" gradientUnits="userSpaceOnUse">
<stop stop-color="#EE9B27"/>
<stop offset="0.473958" stop-color="#E14D28"/>
<stop offset="0.958333" stop-color="#6F84B8"/>
</linearGradient>
</defs>
</svg>
