<svg width="25" height="24" viewBox="0 0 25 24" fill="none" xmlns="http://www.w3.org/2000/svg">
<g clip-path="url(#clip0_1409_6678)">
<path d="M21.5113 14.9042C22.6048 12.0901 22.5484 10.3517 20.9255 7.54077C20.1943 6.27432 18.8263 5.0461 18.346 4.49966C18.6858 4.30349 18.8033 3.86499 18.6071 3.52521L18.0721 2.59854L17.8938 2.28965C17.6976 1.94988 17.2591 1.83238 16.9193 2.02855L14.4482 3.45525C14.1084 3.65142 13.9909 4.08992 14.1871 4.4297L14.9005 5.66526C15.0966 6.00503 15.5351 6.12253 15.8749 5.92636L16.2494 6.57503C16.5348 7.06925 16.365 7.70264 15.8708 7.98798L15.8399 8.00582C15.3148 8.30899 15.1451 8.94238 15.4483 9.46749L10.5061 12.3209C10.1137 11.6413 9.23671 11.4063 8.55715 11.7987L2.99715 15.0087C1.97781 15.5973 1.62532 16.9128 2.21384 17.9321L2.57051 18.5499C3.15902 19.5692 4.47453 19.9217 5.49387 19.3332L11.0539 16.1231C11.7334 15.7308 11.9684 14.8538 11.5761 14.1742L16.5183 11.3208C16.8215 11.8459 17.7329 11.8552 18.258 11.552L18.2889 11.5341C18.7522 11.2666 19.3369 11.4233 19.6353 11.8688C20.4104 13.0687 20.3085 14.0336 20.2267 14.5339C20.1792 14.8084 20.3267 15.1351 20.5881 15.2313C20.9518 15.4331 21.3581 15.2809 21.5113 14.9042Z" fill="#009595"/>
</g>
<defs>
<clipPath id="clip0_1409_6678">
<rect width="24" height="24" fill="white" transform="translate(0.5)"/>
</clipPath>
</defs>
</svg>
