<svg width="12" height="12" viewBox="0 0 12 12" fill="none" xmlns="http://www.w3.org/2000/svg">
<path fill-rule="evenodd" clip-rule="evenodd" d="M5.99998 0C2.67499 0 0 2.67499 0 5.99998C0 9.32497 2.67499 12 5.99998 12C9.32497 12 12 9.32497 12 5.99998C12 2.67499 9.32497 0 5.99998 0ZM6.00024 3.02504C6.42523 3.02504 6.75023 3.35004 6.75023 3.77503C6.75023 4.20003 6.42523 4.52503 6.00024 4.52503C5.57524 4.52503 5.25024 4.20003 5.25024 3.77503C5.25024 3.35004 5.57524 3.02504 6.00024 3.02504ZM7.2502 8.27528C7.2502 8.40028 7.1502 8.50028 7.0002 8.50028H5.00021C4.87521 8.50028 4.75021 8.42528 4.75021 8.27528V7.77528C4.75021 7.65028 4.85021 7.50028 5.00021 7.50028C5.12521 7.50028 5.25021 7.42528 5.25021 7.27528V6.27528C5.25021 6.15029 5.15021 6.00029 5.00021 6.00029C4.87521 6.00029 4.75021 5.92529 4.75021 5.77529V5.27529C4.75021 5.15029 4.85021 5.00029 5.00021 5.00029H6.5002C6.6252 5.00029 6.7502 5.12529 6.7502 5.27529V7.27528C6.7502 7.40028 6.8502 7.50028 7.0002 7.50028C7.1252 7.50028 7.2502 7.62528 7.2502 7.77528V8.27528Z" fill="#DDDDDD"/>
</svg>
