<svg width="21" height="24" viewBox="0 0 21 24" fill="none" xmlns="http://www.w3.org/2000/svg"><path fill-rule="evenodd" clip-rule="evenodd" d="M3 8.508h2c.3 0 .5-.15.5-.45v-.05c0-2.85 2.45-5.2 5.35-5 2.65.2 4.65 2.5 4.65 5.2v-.15c0 .3.2.45.5.45h2c.3 0 .5-.15.5-.45v-.05c0-4.55-3.8-8.2-8.4-8-4.25.2-7.5 3.8-7.6 8.05.05.25.25.45.5.45zm-.5-.45v.2-.2zm18 4.45c0-1.1-.9-2-2-2h-16c-1.1 0-2 .9-2 2v9.5c0 1.1.9 2 2 2h16c1.1 0 2-.9 2-2v-9.5zm-7.7 7.85c.1.3-.15.65-.5.65H8.65c-.35 0-.55-.3-.5-.65l.9-3c-.75-.5-1.2-1.4-1.05-2.4.2-.95.95-1.7 1.95-1.9 1.6-.3 3 .85 3 2.35 0 .8-.4 1.55-1.05 1.95l.9 3z" fill="#C2C4D0"/></svg>