<svg width="97" height="46" viewBox="0 0 97 46" fill="none" xmlns="http://www.w3.org/2000/svg"><path d="M44.721 41.23a6.55 6.55 0 0 1-2.408-.433 6.202 6.202 0 0 1-1.942-1.236 5.866 5.866 0 0 1-1.285-1.879 5.978 5.978 0 0 1-.449-2.328c0-.845.15-1.62.45-2.327a5.682 5.682 0 0 1 1.284-1.863 6.253 6.253 0 0 1 1.926-1.236 6.3 6.3 0 0 1 2.392-.45c.9 0 1.708.145 2.425.434a5.935 5.935 0 0 1 1.894 1.172l-1.927 1.927c-.267-.3-.599-.536-.995-.707-.396-.171-.861-.257-1.397-.257-.46 0-.883.075-1.268.225a2.68 2.68 0 0 0-.98.674 3.154 3.154 0 0 0-.657 1.044c-.15.407-.225.861-.225 1.364 0 .504.075.958.225 1.365.16.407.38.76.658 1.06.278.289.605.513.98.674.384.15.807.225 1.267.225.535 0 1.006-.08 1.413-.241a2.994 2.994 0 0 0 1.044-.722l1.926 1.926a6.178 6.178 0 0 1-1.894 1.172c-.696.278-1.515.417-2.456.417zm9.113 0c-.846 0-1.6-.176-2.264-.53a4.214 4.214 0 0 1-1.557-1.477 3.988 3.988 0 0 1-.578-2.119c0-.78.188-1.477.562-2.087.385-.62.91-1.107 1.573-1.46.664-.364 1.413-.546 2.248-.546.835 0 1.579.182 2.232.545.663.354 1.188.84 1.573 1.461.385.61.578 1.306.578 2.087 0 .782-.193 1.488-.578 2.12a4.058 4.058 0 0 1-1.557 1.477c-.653.353-1.397.53-2.232.53zm-.016-2.488c.31 0 .578-.064.803-.193a1.42 1.42 0 0 0 .545-.578c.129-.246.193-.53.193-.85 0-.322-.07-.6-.209-.835a1.345 1.345 0 0 0-.53-.562 1.494 1.494 0 0 0-.802-.209c-.3 0-.567.07-.803.209a1.42 1.42 0 0 0-.546.578 1.717 1.717 0 0 0-.192.834c0 .31.064.59.192.835.129.247.31.44.546.578.236.129.503.193.803.193zm10.58 2.312v-4.431c0-.364-.107-.648-.321-.851a1.109 1.109 0 0 0-.819-.321c-.225 0-.428.048-.61.144-.171.097-.305.23-.401.402a1.26 1.26 0 0 0-.145.626l-1.091-.514c0-.631.139-1.172.417-1.621a2.79 2.79 0 0 1 1.14-1.06c.492-.257 1.049-.385 1.67-.385.567 0 1.07.133 1.509.401.45.257.802.605 1.06 1.044a2.9 2.9 0 0 1 .385 1.493v5.073h-2.794zm-5.089 0v-7.85h2.793v7.85H59.31zm10.229 0v-8.3c0-.653.144-1.252.433-1.798.29-.546.712-.98 1.269-1.3.567-.332 1.246-.498 2.038-.498l-.016 2.488a.859.859 0 0 0-.674.289c-.171.182-.257.417-.257.706v8.413h-2.793zm-1.67-5.523v-2.328h7.98v2.328h-7.98zm6.759 5.523V29.35h2.793v11.704h-2.793zm8.032.176c-.738 0-1.397-.144-1.975-.433a3.495 3.495 0 0 1-1.348-1.236 3.457 3.457 0 0 1-.482-1.814v-4.544h2.794v4.544c0 .214.043.4.128.562.086.16.204.283.353.369.15.085.327.128.53.128.3 0 .54-.096.722-.289.193-.193.29-.45.29-.77v-4.544h2.793v4.544c0 .684-.16 1.29-.482 1.814-.32.524-.77.936-1.348 1.236-.567.289-1.226.433-1.975.433zm10.015-.176l-1.686-2.906-.642-.385-3.099-4.56h3.227l1.654 2.826.61.353 3.147 4.672h-3.211zm-5.587 0l3.227-4.64 1.59 1.718-1.831 2.922h-2.986zm5.555-3.291l-1.59-1.718 1.686-2.842h2.986l-3.082 4.56z" fill="#225050"/><path d="M41.039 25.171c-.293 0-.581-.039-.867-.117a3.37 3.37 0 0 1-.77-.321 2.51 2.51 0 0 1-.61-.514l.834-.846c.179.2.386.35.621.45.236.1.496.15.781.15.229 0 .4-.032.514-.097.121-.064.182-.16.182-.289a.369.369 0 0 0-.193-.331 1.61 1.61 0 0 0-.481-.193l-.632-.182a3.98 3.98 0 0 1-.62-.268 1.448 1.448 0 0 1-.493-.46c-.121-.2-.182-.456-.182-.77 0-.328.079-.614.236-.857.164-.242.396-.431.695-.567.3-.135.653-.203 1.06-.203.428 0 .813.075 1.156.225.35.15.638.374.867.674l-.846.845a1.405 1.405 0 0 0-.535-.417 1.538 1.538 0 0 0-.631-.128c-.207 0-.368.032-.482.096-.107.064-.16.153-.16.268 0 .128.06.228.181.3.129.07.293.135.493.192.2.05.406.11.62.182.222.064.429.157.621.278.2.121.36.282.482.482.128.2.192.456.192.77 0 .507-.181.91-.545 1.21-.364.292-.86.438-1.488.438zm4.36-.117l-1.938-5.17h1.413l1.263 3.757-.428.01 1.295-3.767h1.017l1.295 3.768-.428-.011 1.263-3.757h1.412l-1.926 5.17H48.62l-1.306-3.575h.396l-1.305 3.575h-1.006zm8.892.107a2.36 2.36 0 0 1-1.274-.354 2.461 2.461 0 0 1-.888-.963 2.895 2.895 0 0 1-.322-1.37c0-.513.107-.974.322-1.38.214-.407.51-.728.888-.963a2.36 2.36 0 0 1 1.273-.354c.372 0 .703.075.996.225.292.15.524.36.696.632.178.264.274.563.288.898v1.863c-.014.342-.11.646-.288.91a1.861 1.861 0 0 1-.696.631c-.293.15-.624.225-.995.225zm.256-1.295c.393 0 .71-.129.953-.386.242-.264.364-.602.364-1.016 0-.271-.057-.51-.171-.717a1.138 1.138 0 0 0-.46-.493 1.259 1.259 0 0 0-.686-.182c-.256 0-.485.061-.685.182a1.229 1.229 0 0 0-.46.493 1.54 1.54 0 0 0-.16.717c0 .278.053.524.16.738.114.207.268.371.46.492.2.115.428.172.685.172zm1.242 1.188v-1.392l.225-1.263-.225-1.241v-1.274h1.391v5.17H55.79zm5.5.107c-.371 0-.706-.075-1.006-.225a1.926 1.926 0 0 1-.717-.631 1.719 1.719 0 0 1-.29-.91v-1.83c.015-.343.111-.646.29-.91.185-.271.424-.485.717-.642.3-.157.635-.236 1.006-.236.478 0 .906.118 1.284.354.378.235.675.556.889.963.22.406.331.867.331 1.38 0 .507-.11.964-.331 1.37-.215.407-.51.728-.889.963a2.38 2.38 0 0 1-1.284.354zm-.246-1.295c.257 0 .485-.057.685-.171.2-.122.353-.286.46-.493.114-.214.171-.46.171-.738 0-.271-.057-.51-.171-.717a1.139 1.139 0 0 0-.46-.493 1.293 1.293 0 0 0-.685-.182c-.25 0-.475.061-.675.182-.2.114-.356.278-.47.493a1.54 1.54 0 0 0-.161.717c0 .278.054.524.16.738.115.207.268.371.46.492.2.115.429.172.686.172zm-2.622 3.35v-7.332h1.402v1.36l-.236 1.252.225 1.252v3.468h-1.391z" fill="#E14E28"/><path d="M30.233 14.913H13.248a1.938 1.938 0 0 0-1.939 1.938v7.532a7.445 7.445 0 0 0 7.466 7.442h5.93a7.446 7.446 0 0 0 7.443-7.442v-7.551a1.938 1.938 0 0 0-1.915-1.919z" fill="#F6E8D4"/><path d="M28.067 2.42H15.294a1.938 1.938 0 0 0-1.845 1.31l-1.457 4.117a1.938 1.938 0 0 1-1.846 1.31H8.763a1.938 1.938 0 0 0-1.939 1.938v3.35a1.938 1.938 0 0 0 1.939 1.937h25.475a1.938 1.938 0 0 0 1.938-1.938v-3.1a1.938 1.938 0 0 0-1.938-1.939h-.896a1.958 1.958 0 0 1-1.837-1.29L29.904 3.71a1.938 1.938 0 0 0-1.837-1.291zM21.701 22.22h.004c-1.333 0-2 .667-2 2v15.556c0 1.333.667 2 2 2h-.003c1.333 0 2-.667 2-2V24.22c0-1.333-.667-2-2-2z" fill="#4D8383"/><path d="M22.314 22.22h.004c-1.334 0-2 .667-2 2v15.556c0 1.333.666 2 2 2h-.004c1.333 0 2-.667 2-2V24.22c0-1.333-.667-2-2-2z" fill="#225050"/><path d="M31.35 14.913H15.046a1.938 1.938 0 0 0-1.938 1.938v7.532a7.446 7.446 0 0 0 7.462 7.442h5.252a7.447 7.447 0 0 0 7.447-7.442v-7.551a1.938 1.938 0 0 0-1.92-1.919z" fill="#FFF5E7"/><path d="M29.326 2.42H16.973a1.895 1.895 0 0 0-1.787 1.31l-1.4 4.117a1.895 1.895 0 0 1-1.794 1.325h-1.338a1.938 1.938 0 0 0-1.891 1.939v3.349a1.938 1.938 0 0 0 1.891 1.938h24.642a1.938 1.938 0 0 0 1.892-1.938v-3.101a1.939 1.939 0 0 0-1.892-1.938h-.865a1.903 1.903 0 0 1-1.779-1.291l-1.55-4.427a1.896 1.896 0 0 0-1.776-1.283z" fill="#225050"/><path d="M30.958 20.67a2.194 2.194 0 1 1-4.388 0 2.194 2.194 0 0 1 4.388 0zM19.837 20.67a2.194 2.194 0 1 1-4.388 0 2.194 2.194 0 0 1 4.388 0zM26.997 26.484a5.016 5.016 0 0 1-7.055.818 3.49 3.49 0 0 1-.73-.818c-.523-.837.803-1.609 1.326-.775.015.023.03.045.047.066.062.104-.043-.066-.062-.074-.02-.008.062.078.081.1.02.024.136.148.206.218.049.05.1.096.155.14.027.027.225.174.07.065a3.143 3.143 0 0 0 1.973.648 3.516 3.516 0 0 0 2.333-.853l.217-.213c.078-.082.334-.388.101-.093a.777.777 0 0 1 1.062-.276.775.775 0 0 1 .276 1.047z" fill="#222"/></svg>