<svg width="24" height="24" viewBox="0 0 24 24" fill="none" xmlns="http://www.w3.org/2000/svg">
<g clip-path="url(#clip0_10018_5898)">
<path fill-rule="evenodd" clip-rule="evenodd" d="M21.7401 20.8486C23.0578 18.8877 19.6444 14.2866 14.1161 10.5717C8.58777 6.8568 3.03802 5.43486 1.72036 7.39572C1.4199 7.84284 1.36543 8.42723 1.52593 9.10709C3.80122 8.78473 8.07152 10.296 12.3817 13.1236C16.7946 16.0186 19.9251 19.4247 20.4285 21.6384C21.0198 21.5117 21.4693 21.2516 21.7401 20.8486Z" fill="url(#paint0_linear_10018_5898)"/>
<path fill-rule="evenodd" clip-rule="evenodd" d="M21.7661 20.8393C23.0836 18.8782 19.6697 14.2758 14.1408 10.5596C8.61201 6.84337 3.06194 5.42065 1.7444 7.38182C0.426863 9.34298 3.84079 13.9454 9.36961 17.6616C14.8984 21.3778 20.4485 22.8005 21.7661 20.8393ZM21.2815 20.5042C22.3971 18.8436 19.0333 14.6286 13.7682 11.0897C8.50316 7.55085 3.33064 6.02814 2.21506 7.68868C1.09949 9.34923 4.46331 13.5642 9.72837 17.1031C14.9934 20.642 20.1659 22.1647 21.2815 20.5042Z" fill="url(#paint1_angular_10018_5898)"/>
<path fill-rule="evenodd" clip-rule="evenodd" d="M21.9826 20.3489C21.9359 20.5244 21.8636 20.6865 21.7647 20.8337C20.4471 22.7945 14.8973 21.3726 9.369 17.6577C3.84069 13.9428 0.427288 9.34166 1.74495 7.3808C1.88042 7.17919 2.06063 7.01335 2.28095 6.88208C1.71016 7.18158 1.17177 7.67196 0.766113 8.31596C0.232077 9.16377 0.0321114 10.0978 0.15003 10.8817C0.451851 13.2898 3.5157 16.897 7.99391 19.8349C13.1349 23.2075 18.3427 24.519 20.2124 23.0249C20.5421 22.7851 20.8791 22.4524 21.1818 22.0496C21.6219 21.4636 21.8992 20.8491 21.9826 20.3489Z" fill="url(#paint2_linear_10018_5898)"/>
<path fill-rule="evenodd" clip-rule="evenodd" d="M22.0166 1.50466C22.2461 1.52079 22.4602 1.57806 22.6562 1.67892C22.8685 1.78815 23.0515 1.94434 23.2058 2.14298C22.842 1.614 22.2944 1.13932 21.611 0.81286C20.8569 0.452641 20.0703 0.330204 19.3862 0.420298C16.8242 0.685776 12.9292 4.0707 10.4194 9.08418C7.7175 14.4815 7.25841 20.0057 9.19579 21.7602C9.47843 22.0854 9.87321 22.4105 10.3453 22.6857C10.9654 23.0472 11.5946 23.2503 12.0962 23.2817C11.9279 23.2543 11.7689 23.2028 11.6203 23.1264C9.51955 22.0455 10.2869 16.3681 13.3342 10.4455C16.0975 5.07504 19.7866 1.34708 22.0166 1.50466Z" fill="url(#paint3_linear_10018_5898)"/>
<path fill-rule="evenodd" clip-rule="evenodd" d="M13.6379 19.3787C14.7057 19.9056 15.7232 20.3259 16.6511 20.6279C18.1211 19.0597 19.6366 16.8855 20.9447 14.3432C23.992 8.42068 24.7594 2.74328 22.6587 1.66242C22.1735 1.41281 21.5779 1.43017 20.9111 1.67745C21.393 3.83851 20.2213 8.0609 17.93 12.638C16.5784 15.3381 15.0691 17.6981 13.6379 19.3787ZM13.9425 22.8363C13.0431 22.5231 12.0958 22.1221 11.1253 21.6386C10.9712 21.7264 10.8206 21.8007 10.6738 21.8606C10.8674 22.453 11.1821 22.8829 11.6234 23.1099C12.2434 23.4289 13.0438 23.3119 13.9425 22.8363Z" fill="url(#paint4_linear_10018_5898)"/>
<path fill-rule="evenodd" clip-rule="evenodd" d="M11.6159 23.1218C12.2424 23.4494 13.0539 23.3278 13.9654 22.8385C13.731 22.7575 13.4934 22.6705 13.2529 22.5776C12.7288 22.7766 12.2666 22.7936 11.8932 22.6015C10.1145 21.6863 11.025 16.3723 13.927 10.7322C16.8289 5.09224 20.6233 1.26201 22.4019 2.17718C24.1806 3.09236 23.2701 8.40639 20.3682 14.0464C19.0254 16.6562 17.4915 18.8785 16.0546 20.4224C16.2592 20.4966 16.4602 20.5657 16.657 20.6293C18.1241 19.0587 19.636 16.885 20.9412 14.3484C23.9983 8.41842 24.7614 2.73754 22.6581 1.66181C20.5574 0.580945 16.3828 4.50852 13.3338 10.4343C10.2849 16.3601 9.51521 22.0409 11.6159 23.1218Z" fill="url(#paint5_angular_10018_5898)"/>
</g>
<defs>
<linearGradient id="paint0_linear_10018_5898" x1="-1.19942" y1="10.7339" x2="25.0781" y2="14.6289" gradientUnits="userSpaceOnUse">
<stop stop-color="#6F84B8"/>
<stop offset="0.2628" stop-color="#87799A"/>
<stop offset="0.489699" stop-color="#DE5A2F"/>
<stop offset="0.508456" stop-color="#E6E4FF"/>
<stop offset="0.556849" stop-color="#2A2A2A"/>
<stop offset="0.566984" stop-color="#2A2A2A"/>
<stop offset="0.608088" stop-color="#E25228"/>
<stop offset="0.650839" stop-color="#CFA14C"/>
<stop offset="0.733945" stop-color="#CEDCFE"/>
<stop offset="0.736018" stop-color="#DE5A2F"/>
<stop offset="0.855294" stop-color="#6F84B8"/>
</linearGradient>
<radialGradient id="paint1_angular_10018_5898" cx="0" cy="0" r="1" gradientUnits="userSpaceOnUse" gradientTransform="translate(11.7552 14.1106) rotate(35.1917) scale(13.0329 4.97627)">
<stop stop-color="#FFF6E4"/>
<stop offset="0.0612877" stop-color="#FFBE4B"/>
<stop offset="0.125165" stop-color="#FFF6E3"/>
<stop offset="0.162502" stop-color="#F9A10F"/>
<stop offset="0.172039" stop-color="#E25428"/>
<stop offset="0.182317" stop-color="#2A2A2A"/>
<stop offset="0.196714" stop-color="#2A2A2A"/>
<stop offset="0.201538" stop-color="#FFE9CE"/>
<stop offset="0.273901" stop-color="#733A29"/>
<stop offset="0.373255" stop-color="#FFBE45"/>
<stop offset="0.409041" stop-color="#EB8B29"/>
<stop offset="0.486813" stop-color="white"/>
<stop offset="0.553261" stop-color="#FFE6C7"/>
<stop offset="0.699429" stop-color="#783F2A"/>
<stop offset="0.714909" stop-color="#E1652E"/>
<stop offset="0.735243" stop-color="#EE962A"/>
<stop offset="0.745615" stop-color="#2A2A2A"/>
<stop offset="0.797285" stop-color="#E05228"/>
<stop offset="0.834756" stop-color="#A36733"/>
<stop offset="0.916404" stop-color="#FFE6C7"/>
<stop offset="1" stop-color="#FFF6E3"/>
</radialGradient>
<linearGradient id="paint2_linear_10018_5898" x1="-3.25529" y1="11.3801" x2="28.3891" y2="20.6321" gradientUnits="userSpaceOnUse">
<stop offset="0.0731736" stop-color="#E14E28"/>
<stop offset="0.114359" stop-color="#F3B66A"/>
<stop offset="0.183408" stop-color="#ED9427"/>
<stop offset="0.257347" stop-color="#DB5030"/>
<stop offset="0.36155" stop-color="#FFBD6A"/>
<stop offset="0.516392" stop-color="#FFEBD2"/>
<stop offset="0.52526" stop-color="#2A2A2A"/>
<stop offset="0.555474" stop-color="#2A2A2A"/>
<stop offset="0.576241" stop-color="#E25228"/>
<stop offset="0.593551" stop-color="#ED9427"/>
<stop offset="0.611566" stop-color="#FFA800"/>
<stop offset="0.656583" stop-color="#FFE6C7"/>
<stop offset="0.673545" stop-color="#FFE6C7"/>
<stop offset="0.78141" stop-color="#ED9427"/>
<stop offset="0.816929" stop-color="#8A561B"/>
<stop offset="0.848958" stop-color="#8A561B"/>
</linearGradient>
<linearGradient id="paint3_linear_10018_5898" x1="22.5818" y1="0.786431" x2="10.3369" y2="23.1195" gradientUnits="userSpaceOnUse">
<stop stop-color="#3F4B68"/>
<stop offset="0.0758885" stop-color="#BACCFA"/>
<stop offset="0.129829" stop-color="#1C212C"/>
<stop offset="0.133817" stop-color="#1C212C"/>
<stop offset="0.15562" stop-color="#ED9428"/>
<stop offset="0.168097" stop-color="#4F669E"/>
<stop offset="0.198771" stop-color="#3D4863"/>
<stop offset="0.324799" stop-color="#506392"/>
<stop offset="0.395747" stop-color="#6F84B8"/>
<stop offset="0.501344" stop-color="#ECF1FF"/>
<stop offset="0.514662" stop-color="#1B202C"/>
<stop offset="0.564017" stop-color="#1B202C"/>
<stop offset="0.631676" stop-color="#EC814B"/>
<stop offset="0.729663" stop-color="#6F84B8"/>
<stop offset="0.760468" stop-color="#6F84B8"/>
<stop offset="0.827331" stop-color="#526594"/>
<stop offset="0.919931" stop-color="#6F84B8"/>
<stop offset="0.972345" stop-color="#516492"/>
<stop offset="1" stop-color="#41537D"/>
</linearGradient>
<linearGradient id="paint4_linear_10018_5898" x1="23.3571" y1="1.91313" x2="10.7265" y2="24.1787" gradientUnits="userSpaceOnUse">
<stop stop-color="#263250"/>
<stop offset="0.449131" stop-color="#6F84B8"/>
<stop offset="0.506912" stop-color="#E6ECFB"/>
<stop offset="0.618599" stop-color="#6C80B3"/>
<stop offset="0.715183" stop-color="#6A7FB2"/>
<stop offset="0.73412" stop-color="#F0A243"/>
<stop offset="0.758214" stop-color="#1C212C"/>
<stop offset="0.763437" stop-color="#1C212C"/>
<stop offset="0.984762" stop-color="#2C241C"/>
</linearGradient>
<radialGradient id="paint5_angular_10018_5898" cx="0" cy="0" r="1" gradientUnits="userSpaceOnUse" gradientTransform="translate(17.429 11.8173) rotate(-153.308) scale(6.02175 13.2683)">
<stop stop-color="#556897"/>
<stop offset="0.00113708" stop-color="#586C9C"/>
<stop offset="0.00718062" stop-color="#586C9C"/>
<stop offset="0.041219" stop-color="#546796"/>
<stop offset="0.0919171" stop-color="#BDC8E4"/>
<stop offset="0.478657" stop-color="#788BBA"/>
<stop offset="0.602429" stop-color="#596D9D"/>
<stop offset="0.653718" stop-color="#1C212C"/>
<stop offset="0.68664" stop-color="#6C80B3"/>
<stop offset="0.835674" stop-color="#B0BDDC"/>
<stop offset="0.938634" stop-color="#5C70A1"/>
<stop offset="0.967156" stop-color="#AEBBDA"/>
</radialGradient>
<clipPath id="clip0_10018_5898">
<rect width="24" height="24" fill="white"/>
</clipPath>
</defs>
</svg>
