<svg width="130" height="80" viewBox="0 0 130 80" fill="none" xmlns="http://www.w3.org/2000/svg">
<g clip-path="url(#clip0_6954_2768)">
<path d="M60.5943 45.8907L55.9404 37.402H59.3877L61.594 42.0604L63.6279 37.402H67.0752L62.5937 45.8907H60.5943Z" fill="#222222" fill-opacity="0.9"/>
<path d="M72.3684 35.571C71.5078 35.6401 71.0259 36.0547 70.957 36.8838C71.0603 37.5748 71.5078 37.9893 72.2651 38.093C73.2634 38.3002 74.1584 38.6803 75.019 39.233C75.8795 39.7858 76.327 40.6494 76.3959 41.8586C76.3615 43.1368 75.8795 44.1732 74.9501 44.9332C74.0207 45.6933 72.9191 46.0733 71.611 46.1078C69.8555 46.1424 68.4097 45.5896 67.3081 44.4841L68.5129 42.0659C68.7195 42.4804 69.0293 42.8259 69.5456 43.1714C70.062 43.5168 70.5783 43.6896 71.1635 43.6896C71.6455 43.6896 72.1274 43.5859 72.5405 43.3095C72.9536 43.0677 73.1601 42.6532 73.1945 42.1349C73.1257 41.4786 72.8503 41.0985 72.3339 40.9258C71.3357 40.684 70.3374 40.3731 69.3391 39.9239C68.3408 39.4748 67.8245 38.6112 67.7556 37.2984C67.7901 36.0892 68.2376 35.0874 69.0981 34.3273C69.9587 33.5673 71.0259 33.1873 72.2651 33.1527C73.5732 33.1182 74.778 33.4637 75.8107 34.1546L74.8124 36.4347C74.124 35.8474 73.2978 35.571 72.3684 35.571Z" fill="#222222" fill-opacity="0.9"/>
<path d="M79.7818 45.9006L75.7542 37.402H78.99L81.021 42.0659L83.2241 37.402H84.842L86.873 42.0659L89.0761 37.402H92.3119L88.2843 45.9006H86.0812L84.0503 41.0295L82.0193 45.9006H79.7818Z" fill="#222222" fill-opacity="0.9"/>
<path d="M95.9228 46.1079C94.718 46.0388 93.7541 45.5897 92.9968 44.726C92.2739 43.8623 91.8952 42.8259 91.8608 41.6859C91.8608 40.5113 92.2739 39.4749 92.9968 38.6112C93.7541 37.7475 94.7524 37.2984 95.9572 37.2293C97.0243 37.2293 97.9537 37.6439 98.7111 38.4384V37.4366H101.534V45.9351H98.7111V45.0369C97.9882 45.7969 97.0587 46.1424 95.9228 46.1079ZM96.9555 43.8969C97.5751 43.8969 98.0914 43.6896 98.5045 43.275C98.9176 42.8604 99.1586 42.3768 99.1586 41.7549C99.0209 40.304 98.2291 39.5439 96.8178 39.4403C95.4753 39.5785 94.7868 40.304 94.718 41.6513C94.718 42.135 94.8556 42.6186 95.1999 43.1023C95.5441 43.5859 96.1293 43.8623 96.9555 43.8969Z" fill="#222222" fill-opacity="0.9"/>
<path d="M102.5 50.3571V37.402H105.736V38.6111C106.527 37.6784 107.526 37.1947 108.765 37.1947C109.97 37.2638 110.968 37.7129 111.76 38.5766C112.551 39.4403 112.965 40.5112 112.999 41.7204C112.965 42.9986 112.517 44.0696 111.691 44.9332C110.865 45.7969 109.832 46.246 108.662 46.2806C107.388 46.246 106.355 45.8315 105.564 45.0714V50.3571H102.5ZM107.939 44.1041C108.593 44.1041 109.109 43.8623 109.522 43.4477C109.935 43.0332 110.142 42.515 110.142 41.9277C110.107 41.1676 109.866 40.5803 109.385 40.1312C108.903 39.6821 108.352 39.4748 107.663 39.4403C107.044 39.4748 106.527 39.7167 106.114 40.1658C105.701 40.6149 105.495 41.1331 105.495 41.7549C105.564 43.2059 106.39 43.9659 107.939 44.1041Z" fill="#222222" fill-opacity="0.9"/>
<g clip-path="url(#clip1_6954_2768)">
<path fill-rule="evenodd" clip-rule="evenodd" d="M52.3312 45.9479C54.436 42.8157 48.9836 35.4662 40.153 29.5322C31.3224 23.5982 22.4576 21.3269 20.3528 24.459C19.8729 25.1733 19.7859 26.1069 20.0423 27.1929C23.6766 26.6777 30.498 29.0918 37.3832 33.6086C44.4319 38.2328 49.4323 43.6733 50.2367 47.2093C51.181 47.0069 51.8988 46.5915 52.3312 45.9479Z" fill="url(#paint0_linear_6954_2768)"/>
<path fill-rule="evenodd" clip-rule="evenodd" d="M52.3712 45.9321C54.4757 42.7995 49.0225 35.4479 40.1911 29.5118C31.3597 23.5758 22.4943 21.3032 20.3898 24.4359C18.2852 27.5685 23.7384 34.9202 32.5698 40.8562C41.4013 46.7922 50.2666 49.0648 52.3712 45.9321ZM51.5981 45.3972C53.3801 42.7448 48.0069 36.012 39.5968 30.3592C31.1867 24.7063 22.9244 22.2741 21.1425 24.9265C19.3605 27.579 24.7337 34.3117 33.1438 39.9646C41.5539 45.6174 49.8162 48.0497 51.5981 45.3972Z" fill="url(#paint1_angular_6954_2768)"/>
<path fill-rule="evenodd" clip-rule="evenodd" d="M20.5829 24.1875C20.7675 23.9759 20.9887 23.7941 21.2437 23.6415C20.3328 24.12 19.4737 24.9029 18.8263 25.9307C17.9732 27.2849 17.6538 28.7768 17.8422 30.0291C18.3243 33.8756 23.2183 39.6376 30.3715 44.3303C38.6001 49.7285 46.9359 51.821 49.9067 49.4114C50.4273 49.0293 50.9587 48.503 51.4363 47.8672C52.1294 46.9445 52.5697 45.9775 52.7096 45.1848C52.6349 45.4516 52.5226 45.6987 52.3712 45.924C51.5956 47.0783 49.9018 47.4987 47.6299 47.2724C47.6297 47.2729 47.6295 47.2734 47.6293 47.2739C43.7364 46.8866 38.1458 44.5998 32.5688 40.8522C28.4908 38.1119 25.1333 35.0697 22.9077 32.2804L22.9101 32.2791C20.3163 29.0282 19.26 26.1209 20.3928 24.4351C20.4511 24.3484 20.5145 24.2659 20.5829 24.1875Z" fill="url(#paint2_linear_6954_2768)"/>
<path fill-rule="evenodd" clip-rule="evenodd" d="M53.8797 15.3715C54.1881 15.5453 54.4561 15.7835 54.6844 16.0804C54.1033 15.2309 53.2257 14.4683 52.1293 13.9446C50.9247 13.3692 49.6682 13.1736 48.5754 13.3175C44.4831 13.7416 38.2614 19.1484 34.2525 27.1567C29.945 35.7613 29.2061 44.5678 32.2799 47.3883C32.7323 47.9131 33.3682 48.4385 34.13 48.8827C35.1287 49.4649 36.1421 49.7899 36.9464 49.8359C36.671 49.7929 36.411 49.7098 36.1683 49.585C32.8128 47.8585 34.0385 38.7897 38.9061 29.3294C43.7737 19.869 50.4398 13.5995 53.7954 15.326C53.8238 15.3406 53.8519 15.3558 53.8797 15.3715Z" fill="url(#paint3_linear_6954_2768)"/>
<path fill-rule="evenodd" clip-rule="evenodd" d="M34.6577 47.5666C34.8923 47.4708 35.1331 47.3521 35.3794 47.2117C36.9299 47.984 38.4431 48.6246 39.88 49.1249C38.4441 49.885 37.1652 50.0721 36.1747 49.5625C35.4697 49.1997 34.967 48.513 34.6577 47.5666ZM39.3933 43.6013C41.0992 44.443 42.7247 45.1142 44.207 45.5964C46.5547 43.0916 48.9749 39.6192 51.064 35.5591C55.9315 26.0987 57.1573 17.03 53.8017 15.3035C53.0269 14.9048 52.0756 14.9325 51.0107 15.3273C51.7802 18.7794 49.9087 25.5238 46.2489 32.8347C44.09 37.1473 41.6794 40.9168 39.3933 43.6013Z" fill="url(#paint4_linear_6954_2768)"/>
<path fill-rule="evenodd" clip-rule="evenodd" d="M36.1582 49.5785C37.1591 50.102 38.456 49.9075 39.9125 49.1252C39.5387 48.9959 39.1596 48.8572 38.776 48.709C37.938 49.0274 37.1991 49.0548 36.6023 48.7478C33.7611 47.2859 35.2156 38.7976 39.8509 29.7886C44.4863 20.7795 50.5472 14.6613 53.3884 16.1232C56.2296 17.5851 54.7751 26.0734 50.1397 35.0824C47.995 39.2508 45.5451 42.8002 43.2502 45.2664C43.5765 45.3849 43.897 45.495 44.2111 45.5966C46.5544 43.0878 48.9692 39.6159 51.0538 35.5644C55.937 26.0922 57.156 17.0179 53.7963 15.2996C50.4408 13.5731 43.7725 19.8467 38.9023 29.3122C34.0321 38.7777 32.8026 47.852 36.1582 49.5785Z" fill="url(#paint5_angular_6954_2768)"/>
</g>
</g>
<defs>
<linearGradient id="paint0_linear_6954_2768" x1="15.6889" y1="29.7913" x2="57.663" y2="36.013" gradientUnits="userSpaceOnUse">
<stop stop-color="#6F84B8"/>
<stop offset="0.2628" stop-color="#87799A"/>
<stop offset="0.489699" stop-color="#DE5A2F"/>
<stop offset="0.508456" stop-color="#E6E4FF"/>
<stop offset="0.556849" stop-color="#2A2A2A"/>
<stop offset="0.566984" stop-color="#2A2A2A"/>
<stop offset="0.608088" stop-color="#E25228"/>
<stop offset="0.650839" stop-color="#CFA14C"/>
<stop offset="0.733945" stop-color="#CEDCFE"/>
<stop offset="0.736018" stop-color="#DE5A2F"/>
<stop offset="0.855294" stop-color="#6F84B8"/>
</linearGradient>
<radialGradient id="paint1_angular_6954_2768" cx="0" cy="0" r="1" gradientUnits="userSpaceOnUse" gradientTransform="translate(36.3805 35.184) rotate(35.1917) scale(20.818 7.9488)">
<stop stop-color="#FFF6E4"/>
<stop offset="0.0612877" stop-color="#FFBE4B"/>
<stop offset="0.125165" stop-color="#FFF6E3"/>
<stop offset="0.162502" stop-color="#F9A10F"/>
<stop offset="0.172039" stop-color="#E25428"/>
<stop offset="0.182317" stop-color="#2A2A2A"/>
<stop offset="0.196714" stop-color="#2A2A2A"/>
<stop offset="0.201538" stop-color="#FFE9CE"/>
<stop offset="0.273901" stop-color="#733A29"/>
<stop offset="0.373255" stop-color="#FFBE45"/>
<stop offset="0.409041" stop-color="#EB8B29"/>
<stop offset="0.486813" stop-color="white"/>
<stop offset="0.553261" stop-color="#FFE6C7"/>
<stop offset="0.699429" stop-color="#783F2A"/>
<stop offset="0.714909" stop-color="#E1652E"/>
<stop offset="0.735243" stop-color="#EE962A"/>
<stop offset="0.745615" stop-color="#2A2A2A"/>
<stop offset="0.797285" stop-color="#E05228"/>
<stop offset="0.834756" stop-color="#A36733"/>
<stop offset="0.916404" stop-color="#FFE6C7"/>
<stop offset="1" stop-color="#FFF6E3"/>
</radialGradient>
<linearGradient id="paint2_linear_6954_2768" x1="12.4061" y1="30.8241" x2="62.9362" y2="45.5793" gradientUnits="userSpaceOnUse">
<stop offset="0.0731736" stop-color="#E14E28"/>
<stop offset="0.114359" stop-color="#F3B66A"/>
<stop offset="0.183408" stop-color="#ED9427"/>
<stop offset="0.257347" stop-color="#DB5030"/>
<stop offset="0.36155" stop-color="#FFBD6A"/>
<stop offset="0.516392" stop-color="#FFEBD2"/>
<stop offset="0.52526" stop-color="#2A2A2A"/>
<stop offset="0.555474" stop-color="#2A2A2A"/>
<stop offset="0.576241" stop-color="#E25228"/>
<stop offset="0.593551" stop-color="#ED9427"/>
<stop offset="0.611566" stop-color="#FFA800"/>
<stop offset="0.656583" stop-color="#FFE6C7"/>
<stop offset="0.673545" stop-color="#FFE6C7"/>
<stop offset="0.78141" stop-color="#ED9427"/>
<stop offset="0.816929" stop-color="#8A561B"/>
<stop offset="0.848958" stop-color="#8A561B"/>
</linearGradient>
<linearGradient id="paint3_linear_6954_2768" x1="53.6816" y1="13.9027" x2="34.1157" y2="49.5779" gradientUnits="userSpaceOnUse">
<stop stop-color="#3F4B68"/>
<stop offset="0.0758885" stop-color="#BACCFA"/>
<stop offset="0.129829" stop-color="#1C212C"/>
<stop offset="0.133817" stop-color="#1C212C"/>
<stop offset="0.15562" stop-color="#ED9428"/>
<stop offset="0.168097" stop-color="#4F669E"/>
<stop offset="0.198771" stop-color="#3D4863"/>
<stop offset="0.324799" stop-color="#506392"/>
<stop offset="0.395747" stop-color="#6F84B8"/>
<stop offset="0.501344" stop-color="#ECF1FF"/>
<stop offset="0.514662" stop-color="#1B202C"/>
<stop offset="0.564017" stop-color="#1B202C"/>
<stop offset="0.631676" stop-color="#EC814B"/>
<stop offset="0.729663" stop-color="#6F84B8"/>
<stop offset="0.760468" stop-color="#6F84B8"/>
<stop offset="0.827331" stop-color="#526594"/>
<stop offset="0.919931" stop-color="#6F84B8"/>
<stop offset="0.972345" stop-color="#516492"/>
<stop offset="1" stop-color="#41537D"/>
</linearGradient>
<linearGradient id="paint4_linear_6954_2768" x1="54.9173" y1="15.704" x2="34.7421" y2="51.2697" gradientUnits="userSpaceOnUse">
<stop stop-color="#263250"/>
<stop offset="0.449131" stop-color="#6F84B8"/>
<stop offset="0.506912" stop-color="#E6ECFB"/>
<stop offset="0.618599" stop-color="#6C80B3"/>
<stop offset="0.715183" stop-color="#6A7FB2"/>
<stop offset="0.73412" stop-color="#F0A243"/>
<stop offset="0.758214" stop-color="#1C212C"/>
<stop offset="0.763437" stop-color="#1C212C"/>
<stop offset="0.984762" stop-color="#2C241C"/>
</linearGradient>
<radialGradient id="paint5_angular_6954_2768" cx="0" cy="0" r="1" gradientUnits="userSpaceOnUse" gradientTransform="translate(45.4437 31.5213) rotate(-153.308) scale(9.6188 21.194)">
<stop stop-color="#556897"/>
<stop offset="0.00113708" stop-color="#586C9C"/>
<stop offset="0.00718062" stop-color="#586C9C"/>
<stop offset="0.041219" stop-color="#546796"/>
<stop offset="0.0919171" stop-color="#BDC8E4"/>
<stop offset="0.478657" stop-color="#788BBA"/>
<stop offset="0.602429" stop-color="#596D9D"/>
<stop offset="0.653718" stop-color="#1C212C"/>
<stop offset="0.68664" stop-color="#6C80B3"/>
<stop offset="0.835674" stop-color="#B0BDDC"/>
<stop offset="0.938634" stop-color="#5C70A1"/>
<stop offset="0.967156" stop-color="#AEBBDA"/>
</radialGradient>
<clipPath id="clip0_6954_2768">
<rect width="130" height="80" fill="white"/>
</clipPath>
<clipPath id="clip1_6954_2768">
<rect width="38.3362" height="38.3362" fill="white" transform="translate(17.6045 12.6455)"/>
</clipPath>
</defs>
</svg>
