<svg width="121" height="121" viewBox="0 0 121 121" fill="none" xmlns="http://www.w3.org/2000/svg">
<path d="M108.492 55.9932C103.062 71.5104 113.587 92.1176 88.0857 97.2843C78.8262 99.1618 72.1254 94.6711 63.1701 99.9657C47.3207 109.333 37.8366 108.538 30.9993 101.332C25.8791 95.9323 25.9388 88.6864 20.7647 85.7182C9.5549 79.2875 6.5897 69.6642 9.07728 58.1122C10.385 52.0394 15.7014 47.935 18.9736 43.8278C22.8087 39.0161 24.1136 33.2501 25.9559 28.356C34.1549 6.56438 56.5517 20.6784 69.851 16.2757C81.5583 12.3986 87.6451 16.7842 91.2215 23.4364C98.5165 37.0051 116.888 32.006 108.492 55.9932ZM114.699 64.5741C114.682 62.8585 113.274 61.4809 111.557 61.498C109.84 61.515 108.461 62.921 108.478 64.6366C108.495 66.3522 109.903 67.7298 111.62 67.7128C113.34 67.6957 114.716 66.2897 114.699 64.5741ZM75.5568 102.829C73.3621 100.679 69.8397 100.716 67.6875 102.908C65.5354 105.101 65.5724 108.62 67.7672 110.771C69.9619 112.921 73.4843 112.884 75.6364 110.691C77.7886 108.498 77.7516 104.976 75.5568 102.829ZM6.64372 36.4058C7.52503 37.2863 8.95219 37.2863 9.83351 36.4058C10.7148 35.5252 10.7148 34.0993 9.83351 33.2188C8.95219 32.3383 7.52503 32.3383 6.64372 33.2188C5.76525 34.0993 5.76525 35.5281 6.64372 36.4058ZM94.0559 21.8969C93.7688 23.8511 95.1249 25.669 97.0808 25.953C99.0368 26.2399 100.856 24.885 101.141 22.9308C101.428 20.9766 100.072 19.1588 98.1156 18.8747C96.1597 18.5878 94.3431 19.9399 94.0559 21.8969ZM60.5404 11.217C60.3016 12.8559 61.4359 14.3755 63.0763 14.6169C64.7167 14.8555 66.2376 13.7222 66.4793 12.0833C66.7181 10.4444 65.5838 8.92476 63.9434 8.68333C62.303 8.44473 60.7792 9.57806 60.5404 11.217ZM12.9636 35.4855C13.3076 37.8458 15.5024 39.4819 17.8677 39.1354C20.2302 38.7917 21.8677 36.5989 21.5209 34.2357C21.1769 31.8753 18.9821 30.2392 16.6168 30.5858C14.2543 30.9323 12.6196 33.1251 12.9636 35.4855ZM101.499 18.6475C101.394 19.3633 101.891 20.0279 102.608 20.133C103.324 20.2381 103.989 19.7411 104.094 19.0253C104.2 18.3095 103.702 17.6448 102.986 17.5397C102.269 17.4346 101.604 17.9317 101.499 18.6475ZM22.985 102.8C23.1158 103.692 23.9459 104.312 24.8386 104.181C25.7313 104.05 26.351 103.221 26.2203 102.329C26.0895 101.437 25.2594 100.818 24.3667 100.948C23.474 101.076 22.8571 101.906 22.985 102.8ZM24.6026 95.2449C24.5799 92.9584 22.7064 91.1235 20.4178 91.149C18.1292 91.1718 16.2927 93.0436 16.3183 95.3301C16.341 97.6167 18.2145 99.4516 20.5031 99.426C22.7917 99.4033 24.6282 97.5314 24.6026 95.2449Z" fill="url(#paint0_linear_12244_3908)"/>
<path d="M77.627 87.9782H43.0566C40.7354 87.9782 38.855 86.0995 38.855 83.7803V33.6781C38.855 31.3589 40.7354 29.4802 43.0566 29.4802H77.627C79.9483 29.4802 81.8287 31.3589 81.8287 33.6781V83.7803C81.8287 86.097 79.9483 87.9782 77.627 87.9782Z" fill="white"/>
<path d="M76.7859 40.8104H44.9701C44.183 40.8104 43.5479 40.4138 43.5479 39.9222C43.5479 39.4306 44.183 39.0339 44.9701 39.0339H76.7859C77.573 39.0339 78.2081 39.4306 78.2081 39.9222C78.2081 40.4113 77.573 40.8104 76.7859 40.8104Z" fill="#EC9128"/>
<path d="M71.1163 44.4974H44.9701C44.183 44.4974 43.5479 44.1008 43.5479 43.6092C43.5479 43.1176 44.183 42.7209 44.9701 42.7209H71.1163C71.9034 42.7209 72.5386 43.1176 72.5386 43.6092C72.5386 44.1008 71.9034 44.4974 71.1163 44.4974Z" fill="#EC9128"/>
<path d="M76.7859 52.6781H44.9701C44.183 52.6781 43.5479 52.2814 43.5479 51.7899C43.5479 51.2983 44.183 50.9016 44.9701 50.9016H76.7859C77.573 50.9016 78.2081 51.2983 78.2081 51.7899C78.2081 52.2814 77.573 52.6781 76.7859 52.6781Z" fill="#EC9128"/>
<path d="M71.1163 56.3641H44.9701C44.183 56.3641 43.5479 55.9675 43.5479 55.4759C43.5479 54.9843 44.183 54.5876 44.9701 54.5876H71.1163C71.9034 54.5876 72.5386 54.9843 72.5386 55.4759C72.5386 55.965 71.9034 56.3641 71.1163 56.3641Z" fill="#EC9128"/>
<path d="M76.7864 64.5302H44.9706C44.1835 64.5302 43.5483 64.1335 43.5483 63.6419C43.5483 63.1503 44.1835 62.7537 44.9706 62.7537H76.7864C77.5735 62.7537 78.2086 63.1503 78.2086 63.6419C78.2086 64.1335 77.5735 64.5302 76.7864 64.5302Z" fill="#EC9128"/>
<path d="M71.1168 68.2201H44.9706C44.1835 68.2201 43.5483 67.8234 43.5483 67.3319C43.5483 66.8403 44.1835 66.4436 44.9706 66.4436H71.1168C71.9039 66.4436 72.5391 66.8403 72.5391 67.3319C72.5391 67.821 71.9039 68.2201 71.1168 68.2201Z" fill="#EC9128"/>
<path d="M76.7859 76.3817H44.9701C44.183 76.3817 43.5479 75.9851 43.5479 75.4935C43.5479 75.0019 44.183 74.6052 44.9701 74.6052H76.7859C77.573 74.6052 78.2081 75.0019 78.2081 75.4935C78.2081 75.9851 77.573 76.3817 76.7859 76.3817Z" fill="#EC9128"/>
<path d="M71.1163 80.0717H44.9701C44.183 80.0717 43.5479 79.675 43.5479 79.1834C43.5479 78.6918 44.183 78.2952 44.9701 78.2952H71.1163C71.9034 78.2952 72.5386 78.6918 72.5386 79.1834C72.5386 79.6726 71.9034 80.0717 71.1163 80.0717Z" fill="#EC9128"/>
<defs>
<linearGradient id="paint0_linear_12244_3908" x1="4.44887" y1="8.65162" x2="121.923" y2="17.608" gradientUnits="userSpaceOnUse">
<stop stop-color="#EE9B27"/>
<stop offset="0.473958" stop-color="#E14D28"/>
<stop offset="0.958333" stop-color="#6F84B8"/>
</linearGradient>
</defs>
</svg>
