<svg width="18" height="18" viewBox="0 0 18 18" fill="none" xmlns="http://www.w3.org/2000/svg"><path fill-rule="evenodd" clip-rule="evenodd" d="M17.777 14.712L9.85 1.904c-.416-.692-1.316-.692-1.73 0L.191 14.712c-.484.796 0 1.904.866 1.904H16.91c.866 0 1.385-1.108.866-1.904zm-8.793-.866a1.02 1.02 0 0 1-1.038-1.038c0-.589.45-1.039 1.038-1.039.589 0 1.039.45 1.039 1.039a1.02 1.02 0 0 1-1.039 1.038zm1.039-3.115c0 .208-.139.346-.346.346H8.292c-.208 0-.346-.138-.346-.346v-4.5c0-.208.138-.346.346-.346h1.385c.207 0 .346.138.346.346v4.5z" fill="#FFB75D"/></svg>