<svg width="54" height="34" viewBox="0 0 54 34" fill="none" xmlns="http://www.w3.org/2000/svg"><path d="M53.74 13.78l-1.259-1.887-3.662 1.58C44.088 5.852 35.424.26 26.383.26 12.963.253.26 12.63.26 25.735v.805c.032.6.527 1.07 1.127 1.07h4.274a.994.994 0 0 0 .991-1.07 7.51 7.51 0 0 1 0-.774c0-10.589 8.853-19.227 19.737-19.227A19.857 19.857 0 0 1 43.314 15.9l-12.54 5.449a7.336 7.336 0 0 0-8.047-.881 6.92 6.92 0 0 0-3.02 9.494 7.305 7.305 0 0 0 9.734 2.97 6.984 6.984 0 0 0 3.825-6.953L44.9 19.06a18.598 18.598 0 0 1 1.258 6.713v.774a.994.994 0 0 0 .99 1.07h4.275c.6 0 1.096-.47 1.127-1.07a7.781 7.781 0 0 0 0-.806 22.694 22.694 0 0 0-2.39-9.821l3.58-2.14z" fill="url(#paint0_linear_888_3332)"/><defs><linearGradient id="paint0_linear_888_3332" x1="-.496" y1=".26" x2="56.855" y2="6.922" gradientUnits="userSpaceOnUse"><stop stop-color="#EE9B27"/><stop offset=".474" stop-color="#E14D28"/><stop offset=".958" stop-color="#6F84B8"/></linearGradient></defs></svg>