<svg width="24" height="24" viewBox="0 0 24 24" fill="none" xmlns="http://www.w3.org/2000/svg"><g clip-path="url(#clip0_12943_20726)" fill="currentColor"><path d="M5.366 20.834h13.366l.386-1.492H4.86l.506 1.492zM22.006 9.63c-.58.072-1.054.519-1.154 1.092-.053.3 0 .586.127.832l-.047.027a4.984 4.984 0 0 1-6.969-2.438l-1.434-3.404c.54-.227.9-.793.807-1.432a1.344 1.344 0 0 0-1.174-1.133 1.339 1.339 0 1 0-.674 2.565l-1.433 3.404c-1.14 2.711-4.382 3.844-6.97 2.438l-.053-.02a1.35 1.35 0 0 0 .127-.833A1.351 1.351 0 0 0 2.005 9.63a1.34 1.34 0 0 0-1.5 1.466c.06.586.513 1.072 1.093 1.179.254.046.5.013.714-.067l2.38 6.462h14.613l2.381-6.462c.22.08.46.113.714.067a1.351 1.351 0 0 0 1.093-1.18 1.325 1.325 0 0 0-1.487-1.465z"/></g><defs><clipPath id="clip0_12943_20726"><path fill="#fff" d="M0 0h24v24H0z"/></clipPath></defs></svg>