<svg width="24" height="24" viewBox="0 0 24 24" fill="none" xmlns="http://www.w3.org/2000/svg">
  <rect width="24" height="24" rx="12" fill="transparent" />
  <path fill-rule="evenodd" clip-rule="evenodd"
    d="M17.4913 12.321C17.4913 12.6795 17.1777 12.9931 16.8192 12.9931L7.17896 12.9929C6.8205 12.9929 6.50684 12.6792 6.50684 12.3207V11.678C6.50684 11.3195 6.8205 11.0059 7.17896 11.0059L16.8192 11.0061C17.1777 11.0061 17.4913 11.3198 17.4913 11.6783V12.321Z"
    fill="#FFFDFA" />
  <path fill-rule="evenodd" clip-rule="evenodd"
    d="M12.323 6.50768C12.6814 6.50768 12.9951 6.82134 12.9951 7.17981L12.9948 16.8201C12.9948 17.1785 12.6811 17.4922 12.3227 17.4922L11.6799 17.4922C11.3215 17.4922 11.0078 17.1785 11.0078 16.8201L11.0081 7.17981C11.0081 6.82134 11.3218 6.50768 11.6802 6.50768L12.323 6.50768Z"
    fill="#FFFDFA" />
</svg>