<svg width="16" height="16" viewBox="0 0 16 16" fill="none" xmlns="http://www.w3.org/2000/svg">
<path fill-rule="evenodd" clip-rule="evenodd" d="M14.9028 13.6333L10.9861 9.74574C11.7753 8.63503 12.1845 7.23202 11.9799 5.74132C11.6291 3.22759 9.58307 1.23999 7.04011 1.00616C3.59104 0.655404 0.668105 3.57834 1.01886 7.05664C1.25269 9.57037 3.24029 11.6457 5.75402 11.9964C7.24472 12.201 8.64773 11.7918 9.75844 11.0026L13.646 14.8901C13.8213 15.0655 14.0844 15.0655 14.2598 14.8901L14.8736 14.2763C15.049 14.1009 15.049 13.8086 14.9028 13.6333ZM2.74333 6.50122C2.74333 4.42594 4.43863 2.73063 6.51392 2.73063C8.58921 2.73063 10.2845 4.42594 10.2845 6.50122C10.2845 8.57651 8.58921 10.2718 6.51392 10.2718C4.43863 10.2718 2.74333 8.60574 2.74333 6.50122Z" fill="#8E8E8E"/>
</svg>
