<svg width="18" height="19" viewBox="0 0 18 19" fill="none" xmlns="http://www.w3.org/2000/svg"><path fill-rule="evenodd" clip-rule="evenodd" d="M9.15 7.342a2.633 2.633 0 0 0-2.649 2.65 2.633 2.633 0 0 0 2.65 2.65 2.633 2.633 0 0 0 2.65-2.65 2.633 2.633 0 0 0-2.65-2.65zm7.95 5.034l-1.4-1.173a7.391 7.391 0 0 0 0-2.574l1.4-1.173c.454-.379.606-1.06.303-1.59l-.606-1.06a1.27 1.27 0 0 0-1.514-.53l-1.74.644a6.357 6.357 0 0 0-2.234-1.287l-.303-1.779c-.113-.606-.643-.946-1.249-.946H8.546c-.606 0-1.136.34-1.25.946l-.302 1.741c-.833.265-1.59.72-2.271 1.287l-1.741-.643c-.151-.038-.265-.076-.416-.076-.455 0-.871.227-1.098.605l-.606 1.06a1.23 1.23 0 0 0 .303 1.59l1.4 1.173a7.392 7.392 0 0 0 0 2.574l-1.4 1.173c-.454.379-.605 1.06-.303 1.59l.606 1.06a1.27 1.27 0 0 0 1.514.53l1.741-.644a6.358 6.358 0 0 0 2.233 1.287l.303 1.817c.114.606.606 1.022 1.249 1.022h1.211c.606 0 1.136-.454 1.25-1.06l.302-1.817a6.465 6.465 0 0 0 2.347-1.4l1.627.643c.152.038.303.076.455.076.454 0 .87-.227 1.097-.606l.568-.984c.34-.416.19-1.097-.265-1.476zm-7.948 1.78a4.151 4.151 0 0 1-4.164-4.164 4.152 4.152 0 0 1 4.164-4.164 4.151 4.151 0 0 1 4.163 4.164 4.151 4.151 0 0 1-4.163 4.163z" fill="#8E8E8E"/></svg>