<svg width="24" height="24" viewBox="0 0 24 24" fill="none" xmlns="http://www.w3.org/2000/svg"><path fill-rule="evenodd" clip-rule="evenodd" d="M12.158 8.769a3.21 3.21 0 0 0-3.231 3.23c0 1.8 1.43 3.231 3.23 3.231s3.231-1.43 3.231-3.23-1.43-3.231-3.23-3.231zm9.692 6.139l-1.708-1.431a9.014 9.014 0 0 0 0-3.139l1.708-1.43c.554-.462.738-1.293.37-1.939l-.74-1.292a1.549 1.549 0 0 0-1.846-.646l-2.123.784a7.751 7.751 0 0 0-2.723-1.57l-.369-2.168c-.138-.739-.785-1.154-1.523-1.154h-1.477c-.738 0-1.385.415-1.523 1.154L9.526 4.2c-1.015.323-1.938.877-2.768 1.569l-2.124-.785c-.184-.046-.323-.092-.507-.092-.554 0-1.062.277-1.339.739L2.05 6.923c-.37.646-.23 1.477.37 1.938l1.707 1.431a9.013 9.013 0 0 0 0 3.139l-1.708 1.43c-.554.462-.738 1.293-.37 1.939l.74 1.292a1.549 1.549 0 0 0 1.845.646l2.124-.784a7.751 7.751 0 0 0 2.723 1.569l.369 2.215c.138.739.738 1.246 1.523 1.246h1.477c.738 0 1.385-.554 1.523-1.292l.37-2.215c1.06-.37 2.03-.923 2.86-1.708l1.985.785c.185.046.37.092.554.092.554 0 1.062-.277 1.339-.739l.692-1.2c.415-.507.23-1.338-.323-1.8zm-9.692 2.169A5.062 5.062 0 0 1 7.08 12a5.062 5.062 0 0 1 5.077-5.077A5.062 5.062 0 0 1 17.235 12a5.062 5.062 0 0 1-5.077 5.077z" fill="#C2C4D0"/></svg>