<svg width="74" height="74" viewBox="0 0 74 74" fill="none" xmlns="http://www.w3.org/2000/svg">
<rect width="74" height="74" rx="16" fill="#FFE8C9"/>
<circle cx="21" cy="21" r="14" fill="#FFFDFA"/>
<circle cx="21" cy="53" r="14" fill="#FFFDFA"/>
<circle cx="53" cy="21" r="14" fill="#FFFDFA"/>
<circle cx="53" cy="53" r="14" fill="url(#paint0_linear_1014_8271)"/>
<path fill-rule="evenodd" clip-rule="evenodd" d="M27.0002 21.3547C27.0002 21.7463 26.6576 22.089 26.266 22.089L15.7343 22.0887C15.3427 22.0887 15 21.746 15 21.3544V20.6522C15 20.2606 15.3427 19.918 15.7343 19.918L26.266 19.9183C26.6576 19.9183 27.0002 20.2609 27.0002 20.6526V21.3547Z" fill="#225050"/>
<path fill-rule="evenodd" clip-rule="evenodd" d="M25.4936 49.0071C25.7705 49.284 25.7705 49.7686 25.4936 50.0455L18.0463 57.4923C17.7694 57.7692 17.2848 57.7692 17.0079 57.4923L16.5114 56.9958C16.2345 56.7189 16.2345 56.2343 16.5114 55.9573L23.9586 48.5105C24.2356 48.2336 24.7202 48.2336 24.9971 48.5105L25.4936 49.0071Z" fill="#225050"/>
<path fill-rule="evenodd" clip-rule="evenodd" d="M59.0002 21.3547C59.0002 21.7463 58.6576 22.089 58.266 22.089L47.7343 22.0887C47.3427 22.0887 47 21.746 47 21.3544V20.6522C47 20.2606 47.3427 19.918 47.7343 19.918L58.266 19.9183C58.6576 19.9183 59.0002 20.2609 59.0002 20.6526V21.3547Z" fill="#225050"/>
<path fill-rule="evenodd" clip-rule="evenodd" d="M59.0002 50.8508C59.0002 51.2424 58.6576 51.5851 58.266 51.5851L47.7343 51.5848C47.3427 51.5848 47 51.2421 47 50.8505V50.1483C47 49.7567 47.3427 49.4141 47.7343 49.4141L58.266 49.4144C58.6576 49.4144 59.0002 49.757 59.0002 50.1487V50.8508Z" fill="#FFFDFA"/>
<path fill-rule="evenodd" clip-rule="evenodd" d="M59.0002 55.8508C59.0002 56.2424 58.6576 56.5851 58.266 56.5851L47.7343 56.5848C47.3427 56.5848 47 56.2421 47 55.8505V55.1483C47 54.7567 47.3427 54.4141 47.7343 54.4141L58.266 54.4144C58.6576 54.4144 59.0002 54.757 59.0002 55.1487V55.8508Z" fill="#FFFDFA"/>
<path fill-rule="evenodd" clip-rule="evenodd" d="M21.3508 14.9998C21.7424 14.9998 22.0851 15.3424 22.0851 15.734L22.0848 26.2657C22.0848 26.6573 21.7421 27 21.3505 27L20.6483 27C20.2567 27 19.9141 26.6573 19.9141 26.2657L19.9144 15.734C19.9144 15.3424 20.257 14.9998 20.6487 14.9998L21.3508 14.9998Z" fill="#225050"/>
<path fill-rule="evenodd" clip-rule="evenodd" d="M17.0051 48.5103C17.282 48.2334 17.7666 48.2334 18.0435 48.5103L25.4903 55.9576C25.7672 56.2345 25.7672 56.7191 25.4903 56.996L24.9938 57.4925C24.7169 57.7694 24.2323 57.7694 23.9554 57.4925L16.5086 50.0453C16.2317 49.7683 16.2317 49.2838 16.5086 49.0068L17.0051 48.5103Z" fill="#225050"/>
<defs>
<linearGradient id="paint0_linear_1014_8271" x1="38.6044" y1="39" x2="68.8763" y2="41.2017" gradientUnits="userSpaceOnUse">
<stop stop-color="#EE9B27"/>
<stop offset="0.473958" stop-color="#E14D28"/>
<stop offset="0.958333" stop-color="#6F84B8"/>
</linearGradient>
</defs>
</svg>
