<svg width="16" height="14" viewBox="0 0 16 14" fill="none" xmlns="http://www.w3.org/2000/svg">
<path d="M15.4478 9.32163C15.1603 8.65619 15.2621 7.96858 15.3603 7.30499C15.512 6.27726 15.696 5.01848 14.1157 4.28281C14.221 3.89094 14.2121 3.43993 13.8925 3.28096L12.0122 2.34381C11.6014 2.13863 10.5301 2.18299 10.4033 2.45286C10.2783 2.72274 9.93185 3.28466 10.8104 3.49353C11.6889 3.7024 12.5068 4.7671 12.5068 4.7671C12.8014 5.06469 13.1407 5.24214 13.4068 5.24584C14.4603 5.62847 14.4014 6.07579 14.246 7.12754C14.1335 7.87985 13.996 8.81885 14.4192 9.79852C14.9906 11.1183 15.0246 11.8946 14.5317 12.3937C13.9282 13.0092 13.1121 12.8133 12.5978 12.4603C11.9032 11.9834 11.8925 11.1017 11.955 9.70425C11.9907 8.91312 12.0282 8.09612 11.8032 7.39926C11.3015 5.85397 9.76757 5.83549 9.69615 5.83549H9.01402V0.584103C9.01402 0.262477 8.76046 0 8.44975 0H1.69102C1.3821 0 1.12675 0.262477 1.12675 0.584103V12.8318H0.564269C0.564269 12.8318 0 12.8318 0 13.4159V14H10.1461V13.4159C10.1461 13.4159 10.1461 12.8318 9.58186 12.8318H9.0176V7H9.69436C9.7765 7.00185 10.5015 7.03697 10.739 7.76895C10.8979 8.25878 10.8658 8.93346 10.8336 9.6488C10.7711 11.0111 10.7015 12.5545 11.9782 13.4307C12.4907 13.7819 13.0496 13.9556 13.5907 13.9556C14.2317 13.9556 14.8478 13.7098 15.3246 13.2255C16.5817 11.9464 15.7567 10.0407 15.4478 9.32163ZM12.8818 4.48614C12.7264 4.48614 12.5996 4.3549 12.5996 4.19408C12.5996 4.03327 12.7264 3.90203 12.8818 3.90203C13.0371 3.90203 13.1639 4.03327 13.1639 4.19408C13.1639 4.3549 13.0389 4.48614 12.8818 4.48614ZM7.88727 5.24954C7.88727 5.56932 7.63371 5.83364 7.323 5.83364H2.81778C2.50886 5.83364 2.25351 5.57116 2.25351 5.24954V1.75046C2.25351 1.43068 2.50707 1.16636 2.81778 1.16636H7.32479C7.63371 1.16636 7.88906 1.42884 7.88906 1.75046V5.24954H7.88727Z" fill="#8E8E8E"/>
</svg>
