<svg width="25" height="24" viewBox="0 0 25 24" fill="none" xmlns="http://www.w3.org/2000/svg">
<path fill-rule="evenodd" clip-rule="evenodd" d="M12.4529 0C5.80274 0 0.452637 5.3501 0.452637 12.0002C0.452637 18.6504 5.80274 24.0005 12.4529 24.0005C19.103 24.0005 24.4531 18.6504 24.4531 12.0002C24.4531 5.3501 19.103 0 12.4529 0ZM19.1526 9.00056L11.5024 16.7507C11.2024 17.0507 10.7024 17.0507 10.4024 16.7507L6.20232 12.5006C5.90232 12.2006 5.90232 11.7006 6.20232 11.4006L7.30234 10.3006C7.60235 10.0006 8.10236 10.0006 8.40236 10.3006L10.6024 12.5506C10.8024 12.7506 11.1524 12.7506 11.3524 12.5506L16.9525 6.75052C17.2525 6.45051 17.7525 6.45051 18.0525 6.75052L19.1526 7.85054C19.5026 8.15055 19.5026 8.65055 19.1526 9.00056Z" fill="#009595"/>
</svg>
