<svg xmlns="http://www.w3.org/2000/svg" xmlns:xlink="http://www.w3.org/1999/xlink" fill="none" version="1.1" width="241" height="67" viewBox="0 0 241 67"><g><g transform="matrix(1,0,0,-1,0,108)"><path d="M137.95693599999998,64.1537L129.37925,95L119.740871,95L111.153662,64.1537L101.9904785,95L93,95L106.248047,54L116.126513,54L124.521683,83.58330000000001L132.988918,54L142.867237,54L156,95L147.124805,95L137.95693599999998,64.1537Z" fill="#1C1B17" fill-opacity="1" style="mix-blend-mode:passthrough"/></g><g transform="matrix(1,0,0,-1,0,108)"><path d="M170.7595534,93.269409C168.0913134,92.150604,166.1298201,90.18372,164.7114828,87.512653C163.64908701,85.550478,163.057660758,81.510187,163,75.38236L163,54L171.6491146,54L171.6491146,70.92744400000001L196,70.92744400000001L196,78.23646L171.6491146,78.23646L171.6491146,80.439938C171.7067747,83.641272,172.8941755,85.724098,175.206768,86.683411C176.32697,87.271648,178.93755099999998,87.570625,182.966322,87.686272L196,87.686272L196,95L181.899084,95C177.100917,95,173.365438,94.40233599999999,170.7595534,93.269409Z" fill="#1C1B17" fill-opacity="1" style="mix-blend-mode:passthrough"/></g><g transform="matrix(1,0,0,-1,0,108)"><path d="M241,95L230.560219,95L221.943005,81.447506L214.020341,95L203.47107017,95L216.723041,74.731441L203,54L213.263783,54L221.943005,68.083053L230.85049800000002,54L241,54L227.277105,74.731441L241,95Z" fill="#1C1B17" fill-opacity="1" style="mix-blend-mode:passthrough"/></g><g transform="matrix(1,0,0,-1,0,134)"><path d="M73,76.99666020000001L57.742798,89.179272L73,100.047409L73,110.49172200000001L50.741989,94.784843L43.332245,100.718887L73,124.251015L73,134L68.178818,130.408886L49.693146,116.683025L42.605701,111.387032L36.721283,106.972107L28.012487,100.452328L37.202461,93.713087L46.325043,86.87414L68.0634,70.6623414L73,67L73,76.99666020000001ZM44.554352,77.18705800000001L15.117713,100.718887L44.799862,124.251015L44.799862,134L39.973827,130.408886L21.492857,116.683025L14.381479,111.387032L8.5162954,106.972107L5.5042648,104.691101L0,100.452328L5.1771164,96.599298L8.9830837,93.713087L18.134443,86.87414L39.863262,70.6623414L44.554352,67.19039874L44.554352,77.18705800000001Z" fill="#A80A14" fill-opacity="1" style="mix-blend-mode:passthrough"/></g></g></svg>