<?xml version="1.0" standalone="no"?>
<!DOCTYPE svg PUBLIC "-//W3C//DTD SVG 1.1//EN" "http://www.w3.org/Graphics/SVG/1.1/DTD/svg11.dtd">
<!--Generator: Xara Designer (www.xara.com), SVG filter version: 6.6.0.0-->
<svg fill="none" fill-rule="evenodd" stroke="black" stroke-width="0.501" stroke-linejoin="bevel" stroke-miterlimit="10" font-family="Times New Roman" font-size="16" style="font-variant-ligatures:none" xmlns:xlink="http://www.w3.org/1999/xlink" xmlns="http://www.w3.org/2000/svg" version="1.1" overflow="visible" width="97.499pt" height="59.999pt" viewBox="298.013 -707.486 97.499 59.999">
 <defs>
	</defs>
 <g id="Layer 1" transform="scale(1 -1)">
  <rect x="-48.7495" y="-29.9995" width="97.499" height="59.999" rx="0" ry="0" transform="matrix(1 0 0 1 346.762 677.486)" stroke="none" stroke-linejoin="miter" stroke-linecap="round" stroke-width="0.75"/>
  <g id="Group_1" fill-rule="nonzero" stroke-linejoin="miter" stroke="none">
   <g id="Group_2" stroke-width="0.026" fill="#1c1b17">
    <path d="M 333.963,675.34 L 332.176,681.738 L 330.168,681.738 L 328.379,675.34 L 326.47,681.738 L 324.597,681.738 L 327.357,673.234 L 329.415,673.234 L 331.164,679.37 L 332.928,673.234 L 334.986,673.234 L 337.722,681.738 L 335.873,681.738 L 333.963,675.34 Z" marker-start="none" marker-end="none"/>
    <path d="M 339.778,673.295 C 339.533,673.332 339.312,673.419 339.126,673.529 C 338.621,673.875 338.375,674.381 338.375,675.07 C 338.375,675.488 338.474,675.859 338.671,676.192 C 338.867,676.512 339.138,676.733 339.47,676.858 C 339.754,676.956 340.236,677.006 340.913,677.006 L 342.996,677.006 C 342.996,677.436 342.91,677.733 342.737,677.893 C 342.564,678.04 342.219,678.114 341.702,678.114 L 338.818,678.114 L 338.818,679.446 L 341.702,679.446 C 342.219,679.446 342.564,679.433 342.762,679.409 C 342.96,679.396 343.155,679.346 343.366,679.286 C 344.303,678.927 344.758,678.077 344.696,676.733 L 344.696,673.234 L 341.111,673.234 C 340.47,673.234 340.026,673.259 339.778,673.295 Z M 342.996,674.564 L 342.996,675.685 L 340.741,675.685 C 340.544,675.685 340.395,675.637 340.273,675.525 C 340.162,675.428 340.099,675.292 340.099,675.108 C 340.099,674.922 340.175,674.775 340.322,674.688 C 340.458,674.601 340.691,674.564 341.037,674.564 L 342.996,674.564 Z" marker-start="none" marker-end="none"/>
    <path d="M 346.287,673.234 L 347.999,673.234 L 347.999,681.738 L 346.287,681.738 L 346.287,673.234 Z" marker-start="none" marker-end="none"/>
    <path d="M 349.676,673.234 L 351.389,673.234 L 351.389,681.738 L 349.676,681.738 L 349.676,673.234 Z" marker-start="none" marker-end="none"/>
    <path d="M 354.593,681.379 C 354.038,681.147 353.63,680.739 353.335,680.185 C 353.114,679.778 352.991,678.94 352.979,677.669 L 352.979,673.234 L 354.778,673.234 L 354.778,676.745 L 359.843,676.745 L 359.843,678.261 L 354.778,678.261 L 354.778,678.718 C 354.79,679.382 355.037,679.814 355.518,680.013 C 355.751,680.135 356.294,680.197 357.132,680.221 L 359.843,680.221 L 359.843,681.738 L 356.91,681.738 C 355.912,681.738 355.135,681.614 354.593,681.379 Z" marker-start="none" marker-end="none"/>
    <path d="M 365.561,678.977 C 365.376,679.137 365.142,679.26 364.859,679.333 C 364.575,679.409 364.181,679.446 363.664,679.446 L 361.137,679.446 L 361.137,673.234 L 362.85,673.234 L 362.85,678.114 L 363.331,678.114 C 363.762,678.114 364.058,678.04 364.205,677.88 C 364.366,677.72 364.439,677.412 364.439,676.969 L 364.439,676.636 L 366.066,676.636 L 366.066,677.239 C 366.066,677.72 366.029,678.077 365.954,678.336 C 365.882,678.582 365.746,678.804 365.561,678.977 Z" marker-start="none" marker-end="none"/>
    <path d="M 368.273,679.198 C 367.89,679.038 367.57,678.766 367.286,678.386 C 366.891,677.83 366.695,677.177 366.695,676.425 C 366.695,675.268 367.065,674.392 367.828,673.813 C 368.099,673.604 368.396,673.468 368.704,673.369 C 369.012,673.284 369.406,673.234 369.9,673.234 L 372.167,673.234 L 372.167,674.564 L 370.097,674.564 C 369.579,674.564 369.209,674.652 368.975,674.812 C 368.739,674.984 368.606,675.28 368.58,675.685 L 372.167,675.685 L 372.167,677.006 L 368.58,677.006 C 368.617,677.436 368.728,677.72 368.926,677.88 C 369.11,678.04 369.431,678.114 369.9,678.114 L 372.167,678.114 L 372.167,679.446 L 369.776,679.446 C 369.16,679.446 368.654,679.358 368.273,679.198 Z" marker-start="none" marker-end="none"/>
    <path d="M 374.73,679.198 C 374.348,679.038 374.015,678.766 373.745,678.386 C 373.349,677.83 373.152,677.177 373.152,676.425 C 373.152,675.268 373.522,674.392 374.285,673.813 C 374.558,673.604 374.841,673.468 375.149,673.369 C 375.458,673.284 375.864,673.234 376.357,673.234 L 378.624,673.234 L 378.624,674.564 L 376.542,674.564 C 376.025,674.564 375.655,674.652 375.42,674.812 C 375.197,674.984 375.063,675.28 375.039,675.685 L 378.624,675.685 L 378.624,677.006 L 375.039,677.006 C 375.075,677.436 375.185,677.72 375.371,677.88 C 375.556,678.04 375.889,678.114 376.357,678.114 L 378.624,678.114 L 378.624,679.446 L 376.222,679.446 C 375.605,679.446 375.112,679.358 374.73,679.198 Z" marker-start="none" marker-end="none"/>
    <path d="M 388.287,681.738 L 386.093,681.738 L 384.282,678.927 L 382.617,681.738 L 380.4,681.738 L 383.185,677.534 L 380.301,673.234 L 382.458,673.234 L 384.282,676.155 L 386.154,673.234 L 388.287,673.234 L 385.403,677.534 L 388.287,681.738 Z" marker-start="none" marker-end="none"/>
   </g>
   <path d="M 320.41,672.551 L 317.239,675.109 L 320.41,677.391 L 320.41,679.584 L 315.784,676.286 L 314.244,677.532 L 320.41,682.473 L 320.41,684.52 L 319.408,683.766 L 315.566,680.884 L 314.093,679.772 L 312.87,678.845 L 311.06,677.476 L 312.97,676.061 L 314.866,674.625 L 319.384,671.221 L 320.41,670.452 L 320.41,672.551 Z M 314.498,672.591 L 308.38,677.532 L 314.549,682.473 L 314.549,684.52 L 313.546,683.766 L 309.705,680.884 L 308.227,679.772 L 307.008,678.845 L 306.382,678.366 L 305.238,677.476 L 306.314,676.667 L 307.105,676.061 L 309.007,674.625 L 313.523,671.221 L 314.498,670.492 L 314.498,672.591 Z" stroke-width="0.006" fill="#a80a14" marker-start="none" marker-end="none"/>
  </g>
 </g>
</svg>
