<?xml version="1.0" standalone="no"?>
<!DOCTYPE svg PUBLIC "-//W3C//DTD SVG 1.1//EN" "http://www.w3.org/Graphics/SVG/1.1/DTD/svg11.dtd">
<!--Generator: Xara Designer (www.xara.com), SVG filter version: 6.6.0.0-->
<svg fill="none" fill-rule="evenodd" stroke="black" stroke-width="0.501" stroke-linejoin="bevel" stroke-miterlimit="10" font-family="Times New Roman" font-size="16" style="font-variant-ligatures:none" xmlns:xlink="http://www.w3.org/1999/xlink" xmlns="http://www.w3.org/2000/svg" version="1.1" overflow="visible" width="18.001pt" height="18.001pt" viewBox="325.871 -564.729 18.001 18.001">
 <defs>
	</defs>
 <g id="Layer 1" transform="scale(1 -1)">
  <path d="M 343.683,549.995 L 339.999,552.967 L 343.683,555.618 L 343.683,558.166 L 338.309,554.334 L 336.52,555.781 L 343.683,561.522 L 343.683,563.898 L 342.52,563.024 L 338.056,559.676 L 336.345,558.383 L 334.924,557.307 L 332.822,555.716 L 335.041,554.072 L 337.243,552.405 L 342.491,548.451 L 343.683,547.558 L 343.683,549.995 Z M 336.816,550.042 L 329.709,555.781 L 336.875,561.522 L 336.875,563.898 L 335.71,563.024 L 331.248,559.676 L 329.531,558.383 L 328.115,557.307 L 327.387,556.75 L 326.059,555.716 L 327.308,554.776 L 328.228,554.072 L 330.437,552.405 L 335.683,548.451 L 336.816,547.605 L 336.816,550.042 Z" fill-rule="nonzero" stroke-linejoin="miter" stroke="none" stroke-width="0.007" fill="#a80a14" marker-start="none" marker-end="none"/>
  <rect x="325.872" y="546.729" width="18" height="18" stroke="none" stroke-width="0.034" stroke-linejoin="miter"/>
 </g>
</svg>
