<svg width="130" height="80" viewBox="0 0 130 80" fill="none" xmlns="http://www.w3.org/2000/svg">
<g clip-path="url(#clip0_18050_5657)">
<path fill-rule="evenodd" clip-rule="evenodd" d="M0.971235 24.5354C0.637341 23.885 0.313596 23.046 0 22.0182L7.43708 22.0182C10.1339 21.9211 11.9972 22.2124 13.0269 22.8923C13.9373 23.4934 14.8924 24.2995 15.8922 25.3105C16.1692 25.5543 16.2153 25.8774 16.0307 26.2796L14.9125 28.7223C14.8558 28.8039 14.7652 28.8586 14.6409 28.8862C14.5106 28.9152 14.3843 28.8522 14.3228 28.8216C14.2963 28.8083 14.2819 28.8011 14.2845 28.81C12.8185 26.5548 10.8956 25.4271 8.51581 25.4271H2.68087C1.87501 25.4829 1.30513 25.1857 0.971235 24.5354ZM33.896 24.5354C34.2298 23.885 34.5536 23.046 34.8672 22.0182L27.4301 22.0182C24.7333 21.9211 22.87 22.2124 21.8403 22.8923C20.9299 23.4934 19.9748 24.2995 18.9749 25.3105C18.698 25.5543 18.6519 25.8774 18.8365 26.2796L19.9547 28.7223C20.0114 28.8039 20.102 28.8586 20.2263 28.8862C20.3565 28.9152 20.4829 28.8522 20.5443 28.8216C20.5709 28.8083 20.5853 28.8011 20.5827 28.81C22.0487 26.5548 23.9716 25.4271 26.3514 25.4271H32.1863C32.9922 25.4829 33.5621 25.1857 33.896 24.5354ZM5.23941 31.6059L3.57617 29.0303H8.23355C10.543 29.0303 12.0177 31.1161 12.5325 31.9428C12.8422 32.4401 13.2992 33.3594 13.9035 34.7006C13.9623 34.8342 14.0252 34.9032 14.0923 34.9075C14.175 34.9129 14.264 34.8202 14.3593 34.6295C15.4387 32.4236 16.358 30.5571 17.1171 29.03C17.2281 28.8687 17.331 28.7881 17.4257 28.7881C17.5204 28.7881 17.6286 28.8687 17.7504 29.03C18.5094 30.5571 19.4287 32.4236 20.5082 34.6295C20.6035 34.8202 20.6925 34.9129 20.7751 34.9075C20.8423 34.9032 20.9052 34.8342 20.964 34.7006C21.5683 33.3594 22.0253 32.4401 22.335 31.9428C22.8498 31.1161 24.3245 29.0303 26.6339 29.0303H31.2913L29.6281 31.6059C29.18 32.2581 28.6256 32.5842 27.9648 32.5842C26.9736 32.5842 25.0415 33.5027 24.3023 34.9801C23.8095 35.965 22.9471 37.7553 21.715 40.3508C21.5358 40.8699 21.2054 41.1295 20.7238 41.1295C20.2422 41.1295 19.8278 40.6237 19.4806 39.6121L17.7503 36.2565C17.6775 36.108 17.571 36.0338 17.431 36.0338C17.2909 36.0338 17.1863 36.108 17.1171 36.2565L15.3869 39.6121C15.0397 40.6237 14.6252 41.1295 14.1436 41.1295C13.662 41.1295 13.3316 40.8699 13.1524 40.3508C11.9204 37.7553 11.058 35.965 10.5651 34.9801C9.82593 33.5027 7.89387 32.5842 6.90265 32.5842C6.24184 32.5842 5.68743 32.2581 5.23941 31.6059Z" fill="url(#paint0_linear_18050_5657)"/>
<path d="M49.9558 36.0632L47.5142 27.3218H44.7707L42.3264 36.0632L39.7181 27.3218H37.159L40.93 38.9407H43.7419L46.1315 30.5571L48.5416 38.9407H51.3534L55.0916 27.3218H52.5653L49.9558 36.0632Z" fill="#1C1B17"/>
<path d="M57.9008 38.8574C57.566 38.8068 57.2641 38.6879 57.01 38.5376C56.32 38.0649 55.9839 37.3736 55.9839 36.4322C55.9839 35.8611 56.1192 35.3542 56.3883 34.8992C56.6561 34.4619 57.0264 34.1601 57.48 33.9893C57.868 33.8554 58.5265 33.7871 59.4515 33.7871H62.2975C62.2975 33.1996 62.18 32.7938 61.9437 32.5751C61.7073 32.3743 61.2359 32.2732 60.5295 32.2732H56.5891V30.4533H60.5295C61.2359 30.4533 61.7073 30.4711 61.9778 30.5038C62.2483 30.5216 62.5148 30.5899 62.8031 30.6719C64.0833 31.1624 64.7049 32.3237 64.6202 34.1601V38.9407H59.7221C58.8463 38.9407 58.2396 38.9066 57.9008 38.8574ZM62.2975 37.1235V35.5919H59.2165C58.9474 35.5919 58.7438 35.6575 58.5771 35.8105C58.4254 35.9431 58.3394 36.1289 58.3394 36.3803C58.3394 36.6344 58.4432 36.8352 58.644 36.9541C58.8299 37.0729 59.1482 37.1235 59.6209 37.1235H62.2975Z" fill="#1C1B17"/>
<path d="M66.7939 38.9407H69.1329V27.3218H66.7939V38.9407Z" fill="#1C1B17"/>
<path d="M71.4243 38.9407H73.7648V27.3218H71.4243V38.9407Z" fill="#1C1B17"/>
<path d="M78.1425 27.8122C77.3842 28.1293 76.8267 28.6866 76.4237 29.4436C76.1217 29.9996 75.9537 31.1446 75.9373 32.8812V38.9407H78.3953V34.1436H85.3155V32.0724H78.3953V31.4479C78.4117 30.5407 78.7491 29.9504 79.4063 29.6786C79.7247 29.5119 80.4665 29.4272 81.6115 29.3944H85.3155V27.3218H81.3082C79.9446 27.3218 78.883 27.4911 78.1425 27.8122Z" fill="#1C1B17"/>
<path d="M93.1279 31.0941C92.8751 30.8754 92.5554 30.7074 92.1687 30.6077C91.7807 30.5038 91.2424 30.4533 90.536 30.4533H87.0834V38.9407H89.4239V32.2732H90.081C90.6699 32.2732 91.0743 32.3743 91.2752 32.5929C91.4951 32.8115 91.5949 33.2323 91.5949 33.8376V34.2926H93.8179V33.4687C93.8179 32.8115 93.7673 32.3237 93.6648 31.9699C93.5664 31.6338 93.3806 31.3304 93.1279 31.0941Z" fill="#1C1B17"/>
<path d="M96.8332 30.7921C96.3099 31.0107 95.8727 31.3824 95.4846 31.9016C94.9449 32.6612 94.6772 33.5534 94.6772 34.5809C94.6772 36.1616 95.1827 37.3585 96.2252 38.1496C96.5954 38.4352 97.0012 38.6209 97.422 38.7562C97.8428 38.8724 98.3812 38.9407 99.0561 38.9407H102.153V37.1235H99.3252C98.6175 37.1235 98.112 37.0033 97.7923 36.7847C97.4699 36.5497 97.2881 36.1452 97.2526 35.5919H102.153V33.7871H97.2526C97.3032 33.1996 97.4548 32.8115 97.7253 32.5929C97.9767 32.3743 98.4153 32.2732 99.0561 32.2732H102.153V30.4533H98.8867C98.0451 30.4533 97.3537 30.5736 96.8332 30.7921Z" fill="#1C1B17"/>
<path d="M105.655 30.7921C105.134 31.0107 104.679 31.3824 104.31 31.9016C103.769 32.6612 103.499 33.5534 103.499 34.5809C103.499 36.1616 104.005 37.3585 105.047 38.1496C105.42 38.4352 105.807 38.6209 106.228 38.7562C106.65 38.8724 107.205 38.9407 107.878 38.9407H110.976V37.1235H108.131C107.425 37.1235 106.919 37.0033 106.598 36.7847C106.293 36.5497 106.11 36.1452 106.078 35.5919H110.976V33.7871H106.078C106.127 33.1996 106.277 32.8115 106.531 32.5929C106.784 32.3743 107.239 32.2732 107.878 32.2732H110.976V30.4533H107.694C106.851 30.4533 106.177 30.5736 105.655 30.7921Z" fill="#1C1B17"/>
<path d="M130.003 27.3218H127.005L124.531 31.1624L122.256 27.3218H119.227L123.032 33.0656L119.092 38.9407H122.039L124.531 34.9497L127.089 38.9407H130.003L126.063 33.0656L130.003 27.3218Z" fill="#1C1B17"/>
<path d="M75.1972 51.1369C74.5582 51.1369 73.9608 51.0207 73.4048 50.7884C72.8572 50.5561 72.3759 50.2366 71.961 49.83C71.5544 49.4151 71.2349 48.9338 71.0026 48.3861C70.7702 47.8302 70.654 47.2369 70.654 46.6062C70.654 45.9756 70.7661 45.3906 70.9901 44.8512C71.2225 44.3035 71.5419 43.8264 71.9485 43.4198C72.3634 43.0049 72.8447 42.6854 73.3924 42.4614C73.94 42.229 74.5334 42.1128 75.1723 42.1128C75.8195 42.1128 76.417 42.229 76.9647 42.4614C77.5123 42.6854 77.9895 43.0049 78.3961 43.4198C78.811 43.8264 79.1346 44.3035 79.3669 44.8512C79.5993 45.3989 79.7155 45.988 79.7155 46.6187C79.7155 47.2493 79.5993 47.8385 79.3669 48.3861C79.1346 48.9338 78.811 49.4151 78.3961 49.83C77.9895 50.2366 77.5123 50.5561 76.9647 50.7884C76.4253 51.0207 75.8361 51.1369 75.1972 51.1369ZM75.1723 49.5561C75.7366 49.5561 76.2261 49.4317 76.641 49.1827C77.0559 48.9338 77.3796 48.5894 77.6119 48.1496C77.8526 47.7098 77.9729 47.1954 77.9729 46.6062C77.9729 46.1747 77.9065 45.7806 77.7737 45.4237C77.641 45.0669 77.4501 44.7599 77.2012 44.5027C76.9522 44.2371 76.6576 44.0338 76.3174 43.8928C75.9772 43.7517 75.5955 43.6812 75.1723 43.6812C74.6246 43.6812 74.1392 43.8056 73.716 44.0546C73.3011 44.2952 72.9733 44.6354 72.7327 45.0752C72.5003 45.515 72.3842 46.0254 72.3842 46.6062C72.3842 47.046 72.4506 47.4485 72.5833 47.8136C72.7244 48.1787 72.9152 48.4899 73.1559 48.7471C73.4048 49.0043 73.6994 49.2035 74.0396 49.3445C74.3881 49.4856 74.7657 49.5561 75.1723 49.5561ZM84.3077 51.1245C83.8762 51.1245 83.4862 51.0373 83.1377 50.8631C82.7892 50.6805 82.5112 50.4357 82.3038 50.1287C82.0963 49.8217 81.9843 49.469 81.9677 49.0707V46.9423C81.9843 46.544 82.0963 46.1913 82.3038 45.8843C82.5195 45.569 82.7975 45.32 83.1377 45.1375C83.4862 44.9549 83.8762 44.8636 84.3077 44.8636C84.8637 44.8636 85.3616 45.0005 85.8014 45.2744C86.2412 45.5482 86.5855 45.9216 86.8345 46.3946C87.0917 46.8676 87.2203 47.4028 87.2203 48.0003C87.2203 48.5894 87.0917 49.1205 86.8345 49.5935C86.5855 50.0665 86.2412 50.4399 85.8014 50.7137C85.3616 50.9876 84.8637 51.1245 84.3077 51.1245ZM80.9719 53.5143V44.9881H82.6025V46.5689L82.3287 48.0252L82.5901 49.4815V53.5143H80.9719ZM84.0215 49.6184C84.3202 49.6184 84.5857 49.552 84.8181 49.4192C85.0504 49.2782 85.2288 49.0873 85.3533 48.8467C85.4861 48.5977 85.5524 48.3114 85.5524 47.9878C85.5524 47.6725 85.4861 47.3945 85.3533 47.1539C85.2288 46.9049 85.0504 46.7141 84.8181 46.5813C84.5857 46.4403 84.3202 46.3697 84.0215 46.3697C83.731 46.3697 83.4696 46.4403 83.2373 46.5813C83.005 46.7141 82.8224 46.9049 82.6896 47.1539C82.5652 47.3945 82.5029 47.6725 82.5029 47.9878C82.5029 48.3114 82.5652 48.5977 82.6896 48.8467C82.8224 49.0873 83.0008 49.2782 83.2249 49.4192C83.4572 49.552 83.7227 49.6184 84.0215 49.6184ZM91.2536 51.1245C90.6229 51.1245 90.0628 50.9917 89.5732 50.7262C89.0837 50.4523 88.6936 50.0789 88.4032 49.6059C88.1211 49.133 87.98 48.5936 87.98 47.9878C87.98 47.3904 88.1169 46.8593 88.3908 46.3946C88.6729 45.9216 89.0546 45.5482 89.5359 45.2744C90.0172 44.9923 90.5524 44.8512 91.1416 44.8512C91.7224 44.8512 92.2327 44.984 92.6725 45.2495C93.1206 45.5067 93.4691 45.8635 93.7181 46.3199C93.9753 46.768 94.1039 47.2783 94.1039 47.8509C94.1039 47.9588 94.0956 48.0708 94.079 48.187C94.0707 48.2949 94.05 48.4193 94.0168 48.5604L88.9633 48.5728V47.353L93.2575 47.3406L92.5979 47.8509C92.5813 47.4941 92.5149 47.1954 92.3987 46.9547C92.2908 46.7141 92.129 46.5315 91.9133 46.4071C91.7058 46.2743 91.4486 46.2079 91.1416 46.2079C90.8179 46.2079 90.5358 46.2826 90.2952 46.432C90.0545 46.573 89.8678 46.7763 89.735 47.0419C89.6106 47.2991 89.5483 47.6061 89.5483 47.9629C89.5483 48.328 89.6147 48.6475 89.7475 48.9214C89.8886 49.1869 90.0877 49.3943 90.3449 49.5437C90.6022 49.6848 90.9009 49.7553 91.2411 49.7553C91.5482 49.7553 91.8261 49.7055 92.0751 49.6059C92.324 49.4981 92.5398 49.3404 92.7223 49.133L93.6807 50.0914C93.3903 50.4316 93.0335 50.6888 92.6103 50.8631C92.1954 51.0373 91.7432 51.1245 91.2536 51.1245ZM99.2465 51V47.5522C99.2465 47.1954 99.1345 46.9049 98.9105 46.6809C98.6864 46.4568 98.396 46.3448 98.0392 46.3448C97.8068 46.3448 97.5994 46.3946 97.4168 46.4942C97.2343 46.5938 97.089 46.7348 96.9812 46.9174C96.8816 47.0999 96.8318 47.3115 96.8318 47.5522L96.197 47.2286C96.197 46.7556 96.2966 46.3448 96.4957 45.9963C96.7032 45.6395 96.9853 45.3615 97.3421 45.1624C97.7072 44.9632 98.118 44.8636 98.5744 44.8636C99.0142 44.8636 99.4083 44.9757 99.7568 45.1997C100.105 45.4154 100.379 45.7017 100.578 46.0585C100.778 46.4071 100.877 46.7846 100.877 47.1912V51H99.2465ZM95.2012 51V44.9881H96.8318V51H95.2012ZM106.218 51V49.6184H108.496C108.903 49.6184 109.218 49.4939 109.442 49.245C109.674 48.996 109.791 48.7015 109.791 48.3612C109.791 48.1289 109.741 47.9173 109.641 47.7264C109.542 47.5356 109.392 47.3862 109.193 47.2783C109.002 47.1622 108.77 47.1041 108.496 47.1041H106.218V45.7349H108.309C108.658 45.7349 108.936 45.6478 109.143 45.4735C109.359 45.2993 109.467 45.0379 109.467 44.6894C109.467 44.3326 109.359 44.067 109.143 43.8928C108.936 43.7185 108.658 43.6314 108.309 43.6314H106.218V42.2498H108.509C109.089 42.2498 109.575 42.3576 109.965 42.5734C110.363 42.7808 110.662 43.0588 110.861 43.4073C111.06 43.7476 111.16 44.121 111.16 44.5276C111.16 45.0254 111.006 45.4569 110.699 45.8221C110.401 46.1789 109.961 46.4444 109.38 46.6187L109.455 46.071C110.102 46.2535 110.6 46.5564 110.948 46.9796C111.305 47.3945 111.483 47.8965 111.483 48.4857C111.483 48.9504 111.367 49.3736 111.135 49.7553C110.911 50.1287 110.579 50.4316 110.139 50.6639C109.708 50.888 109.181 51 108.558 51H106.218ZM104.974 51V42.2498H106.654V51H104.974ZM115.616 51.1245C114.985 51.1245 114.425 50.9917 113.936 50.7262C113.446 50.4523 113.056 50.0789 112.765 49.6059C112.483 49.133 112.342 48.5936 112.342 47.9878C112.342 47.3904 112.479 46.8593 112.753 46.3946C113.035 45.9216 113.417 45.5482 113.898 45.2744C114.379 44.9923 114.915 44.8512 115.504 44.8512C116.085 44.8512 116.595 44.984 117.035 45.2495C117.483 45.5067 117.831 45.8635 118.08 46.3199C118.338 46.768 118.466 47.2783 118.466 47.8509C118.466 47.9588 118.458 48.0708 118.441 48.187C118.433 48.2949 118.412 48.4193 118.379 48.5604L113.326 48.5728V47.353L117.62 47.3406L116.96 47.8509C116.944 47.4941 116.877 47.1954 116.761 46.9547C116.653 46.7141 116.491 46.5315 116.276 46.4071C116.068 46.2743 115.811 46.2079 115.504 46.2079C115.18 46.2079 114.898 46.2826 114.657 46.432C114.417 46.573 114.23 46.7763 114.097 47.0419C113.973 47.2991 113.911 47.6061 113.911 47.9629C113.911 48.328 113.977 48.6475 114.11 48.9214C114.251 49.1869 114.45 49.3943 114.707 49.5437C114.964 49.6848 115.263 49.7553 115.603 49.7553C115.91 49.7553 116.188 49.7055 116.437 49.6059C116.686 49.4981 116.902 49.3404 117.085 49.133L118.043 50.0914C117.753 50.4316 117.396 50.6888 116.973 50.8631C116.558 51.0373 116.105 51.1245 115.616 51.1245ZM120.301 51V42.4863H121.932V51H120.301ZM118.895 46.4195V44.9881H123.338V46.4195H118.895ZM126.713 51.1245C126.165 51.1245 125.671 50.9876 125.232 50.7137C124.792 50.4399 124.447 50.0665 124.199 49.5935C123.95 49.1205 123.825 48.5894 123.825 48.0003C123.825 47.4028 123.95 46.8676 124.199 46.3946C124.447 45.9216 124.792 45.5482 125.232 45.2744C125.671 45.0005 126.165 44.8636 126.713 44.8636C127.144 44.8636 127.53 44.9508 127.87 45.125C128.211 45.2993 128.48 45.5441 128.679 45.8594C128.887 46.1664 128.999 46.5149 129.015 46.9049V49.0707C128.999 49.469 128.887 49.8217 128.679 50.1287C128.48 50.4357 128.211 50.6805 127.87 50.8631C127.53 51.0373 127.144 51.1245 126.713 51.1245ZM127.012 49.6184C127.468 49.6184 127.837 49.469 128.119 49.1703C128.401 48.8633 128.543 48.4691 128.543 47.9878C128.543 47.6725 128.476 47.3945 128.343 47.1539C128.219 46.9049 128.04 46.7141 127.808 46.5813C127.584 46.4403 127.319 46.3697 127.012 46.3697C126.713 46.3697 126.447 46.4403 126.215 46.5813C125.991 46.7141 125.812 46.9049 125.68 47.1539C125.555 47.3945 125.493 47.6725 125.493 47.9878C125.493 48.3114 125.555 48.5977 125.68 48.8467C125.812 49.0873 125.991 49.2782 126.215 49.4192C126.447 49.552 126.713 49.6184 127.012 49.6184ZM128.455 51V49.3819L128.717 47.9131L128.455 46.4693V44.9881H130.073V51H128.455Z" fill="url(#paint1_linear_18050_5657)"/>
</g>
<defs>
<linearGradient id="paint0_linear_18050_5657" x1="31.9157" y1="38.2302" x2="-1.26936" y2="29.2323" gradientUnits="userSpaceOnUse">
<stop offset="0.0884597" stop-color="#5B39F2"/>
<stop offset="0.523166" stop-color="#FF350B"/>
<stop offset="1" stop-color="#FFA100"/>
</linearGradient>
<linearGradient id="paint1_linear_18050_5657" x1="125.836" y1="53.2719" x2="76.141" y2="28.2188" gradientUnits="userSpaceOnUse">
<stop offset="0.0884597" stop-color="#5B39F2"/>
<stop offset="0.523166" stop-color="#FF350B"/>
<stop offset="1" stop-color="#FFA100"/>
</linearGradient>
<clipPath id="clip0_18050_5657">
<rect width="130.004" height="80" fill="white"/>
</clipPath>
</defs>
</svg>
