<svg xmlns="http://www.w3.org/2000/svg"
  xmlns:xlink="http://www.w3.org/1999/xlink" fill="none" version="1.1" width="158.30078125" height="34.1953125" viewBox="0 0 158.30078125 34.1953125">
  <defs>
    <linearGradient x1="0.9153505563735962" y1="0.8484381437301636" x2="-0.08425622669790525" y2="0.6997407068289182" id="wfx-logo-small">
      <stop offset="8.845974504947662%" stop-color="#5B39F2" stop-opacity="1"/>
      <stop offset="52.31660604476929%" stop-color="#FF350B" stop-opacity="1"/>
      <stop offset="100%" stop-color="#FFA100" stop-opacity="1"/>
    </linearGradient>
  </defs>
  <g>
    <g>
      <g>
        <path d="M1.7361666,4.5321875Q0.84086895,2.7884371,0,0.032556243L13.294428,0.03257551Q20.52566,-0.22794573,23.286661,1.5950409Q25.727804,3.2068417,28.40877,5.9178157Q29.151299,6.5716553,28.656258,7.6501932L26.657436,12.016776Q26.505222,12.235538,26.17181,12.309703C25.93903,12.361482,25.713133,12.24886,25.603323,12.194115C25.555851,12.170447,25.530092,12.157605,25.534845,12.173532Q21.603811,6.1262717,15.222755,6.1262717L4.7922859,6.1262717Q2.6314642,6.2759366,1.7361666,4.5321875ZM60.591957,4.5321875Q61.487255,2.7884371,62.328125,0.032556243L49.033699,0.03257551Q41.802467,-0.22794573,39.041466,1.5950409Q36.600319,3.2068417,33.919357,5.9178157Q33.176826,6.5716553,33.671867,7.6501932L35.670689,12.016776Q35.822903,12.235538,36.156315,12.309703C36.389095,12.361483,36.614998,12.248857,36.7248,12.194115C36.772274,12.170448,36.798035,12.157605,36.793282,12.173532Q40.724312,6.1262717,47.10537,6.1262717L57.535839,6.1262717Q59.696659,6.2759366,60.591957,4.5321875ZM9.365757,17.170895L6.3925781,12.566803L14.718048,12.566803C18.846401,12.566803,21.482565,16.295311,22.402742,17.773067Q23.23317,19.106686,24.853529,22.702982Q25.011154,23.061207,25.191145,23.072826Q25.412786,23.087132,25.668346,22.575882Q28.562778,16.660912,30.598181,12.566264Q30.895874,12.133789,31.14979,12.133789Q31.403711,12.133789,31.730156,12.566264Q33.765564,16.660912,36.659996,22.575882Q36.915554,23.087132,37.137192,23.072826Q37.317192,23.061207,37.474812,22.702982Q39.095177,19.106686,39.925587,17.773067C40.845787,16.295311,43.481934,12.566803,47.610294,12.566803L55.935768,12.566803L52.962585,17.170895Q51.76128,18.919716,49.989384,18.919716C48.217495,18.919716,44.763779,20.561504,43.44236,23.202538Q42.120949,25.843582,38.817394,32.803196Q38.336868,34.195152,37.045494,34.195152Q35.754112,34.195152,34.82312,31.482674L31.730131,25.48414Q31.534729,25.08621,31.159246,25.08621Q30.783756,25.08621,30.598207,25.48414L27.505228,31.482674Q26.574223,34.195152,25.282845,34.195152Q23.991472,34.195152,23.510942,32.803196Q20.207396,25.843582,18.885983,23.202538C17.564568,20.561504,14.110842,18.919716,12.338953,18.919716Q10.567064,18.919716,9.365757,17.170895Z" fill-rule="evenodd" fill="url(#wfx-logo-small)" fill-opacity="1" style="mix-blend-mode:passthrough"/>
      </g>
    </g>
    <g>
      <g transform="matrix(1,0,0,-1,0,59.246917724609375)">
        <g>
          <path d="M95.339113625,35.82766006230469L90.097905625,54.67562886230469L84.208576625,54.67562886230469L78.961546625,35.82766006230469L73.362579825,54.67562886230469L67.869140625,54.67562886230469L75.964075125,29.623458862304688L82.000099625,29.623458862304688L87.129789625,47.69969786230469L92.30351462499999,29.623458862304688L98.339444625,29.623458862304688L106.363937625,54.67562886230469L100.940940625,54.67562886230469L95.339113625,35.82766006230469Z" fill="#1C1B17" fill-opacity="1" style="mix-blend-mode:passthrough"/>
        </g>
      </g>
      <g transform="matrix(1,0,0,-1,0,59.246917724609375)">
        <g>
          <path d="M115.38243624003906,53.61818686230468C113.75206354003906,52.93456686230469,112.55353914003906,51.73274586230468,111.68689584003906,50.10064286230469C111.03774327003906,48.901698862304684,110.67636225703906,46.432965862304684,110.64112854003906,42.68869186230469L110.64112854003906,29.623458862304688L115.92598104003906,29.623458862304688L115.92598104003906,39.96660886230469L130.80507054003905,39.96660886230469L130.80507054003905,44.43262386230469L115.92598104003906,44.43262386230469L115.92598104003906,45.77901886230469C115.96121504003906,47.73512286230469,116.68675514003907,49.00778786230469,118.09981444003907,49.59395386230469C118.78428554003906,49.953380862304684,120.37942414003906,50.13606686230469,122.84112254003907,50.206729862304684L130.80507054003905,50.206729862304684L130.80507054003905,54.67562886230469L122.18900454003906,54.67562886230469C119.25719544003906,54.67562886230469,116.97470374003906,54.31043786230469,115.38243624003906,53.61818686230468Z" fill="#1C1B17" fill-opacity="1" style="mix-blend-mode:passthrough"/>
        </g>
      </g>
      <g transform="matrix(1,0,0,-1,0,59.246917724609375)">
        <g>
          <path d="M158.301359390625,54.67562886230469L151.922359390625,54.67562886230469L146.656993390625,46.394670862304686L141.816017590625,54.67562886230469L135.370112180625,54.67562886230469L143.46744159062501,42.29095886230469L135.082275390625,29.623458862304688L141.353736890625,29.623458862304688L146.656993390625,38.22860626230469L152.099722390625,29.623458862304688L158.301359390625,29.623458862304688L149.916276390625,42.29095886230469L158.301359390625,54.67562886230469Z" fill="#1C1B17" fill-opacity="1" style="mix-blend-mode:passthrough"/>
        </g>
      </g>
    </g>
  </g>
</svg>