<svg width="24" height="24" viewBox="0 0 24 24" fill="none" xmlns="http://www.w3.org/2000/svg"><rect width="24" height="24" rx="8" fill="#3396FF"/><path d="M12 24c6.627 0 12-5.373 12-12S18.627 0 12 0 0 5.373 0 12s5.373 12 12 12z" fill="#3396FF"/><path d="M7.34 8.93c2.573-2.51 6.747-2.51 9.32 0l.31.302a.316.316 0 0 1 0 .455l-1.06 1.033a.168.168 0 0 1-.232 0l-.427-.415c-1.795-1.751-4.707-1.751-6.502 0l-.457.445a.168.168 0 0 1-.233 0L7 9.716a.316.316 0 0 1 0-.454l.34-.332zm11.512 2.137l.943.92a.316.316 0 0 1 0 .455l-4.252 4.147a.335.335 0 0 1-.466 0l-3.019-2.944a.084.084 0 0 0-.116 0L8.924 16.59a.336.336 0 0 1-.466 0l-4.253-4.147a.316.316 0 0 1 0-.455l.943-.92a.336.336 0 0 1 .466 0l3.018 2.944a.084.084 0 0 0 .117 0l3.018-2.944a.335.335 0 0 1 .466 0l3.018 2.944a.084.084 0 0 0 .117 0l3.018-2.944a.336.336 0 0 1 .466 0z" fill="#fff"/></svg>