<svg width="159" height="35" viewBox="0 0 159 35" fill="none" xmlns="http://www.w3.org/2000/svg">
<g clip-path="url(#clip0_18050_5683)">
<path fill-rule="evenodd" clip-rule="evenodd" d="M1.73617 4.53219C1.1393 3.36969 0.560579 1.86981 0 0.0325562L13.2944 0.0325755C18.1152 -0.141105 21.446 0.379717 23.2867 1.59504C24.9141 2.66957 26.6215 4.1105 28.4088 5.91782C28.9038 6.35371 28.9863 6.93117 28.6563 7.65019L26.6574 12.0168C26.556 12.1626 26.3941 12.2603 26.1718 12.3097C25.939 12.3615 25.7131 12.2489 25.6033 12.1941C25.5559 12.1704 25.5301 12.1576 25.5348 12.1735C22.9142 8.14202 19.4768 6.12627 15.2228 6.12627H4.79229C3.35174 6.22605 2.33303 5.69469 1.73617 4.53219ZM60.592 4.53219C61.1888 3.36969 61.7675 1.86981 62.3281 0.0325562L49.0337 0.0325755C44.2129 -0.141105 40.8821 0.379717 39.0415 1.59504C37.414 2.66957 35.7067 4.1105 33.9194 5.91782C33.4243 6.35371 33.3418 6.93117 33.6719 7.65019L35.6707 12.0168C35.7722 12.1626 35.934 12.2603 36.1563 12.3097C36.3891 12.3615 36.615 12.2489 36.7248 12.1941C36.7723 12.1704 36.798 12.1576 36.7933 12.1735C39.414 8.14202 42.8513 6.12627 47.1054 6.12627H57.5358C58.9764 6.22605 59.9951 5.69469 60.592 4.53219ZM9.36576 17.1709L6.39258 12.5668H14.718C18.8464 12.5668 21.4826 16.2953 22.4027 17.7731C22.9564 18.6621 23.7733 20.3055 24.8535 22.703C24.9586 22.9418 25.0712 23.0651 25.1911 23.0728C25.3389 23.0824 25.498 22.9167 25.6683 22.5759C27.598 18.6326 29.2412 15.296 30.5982 12.5663C30.7966 12.2779 30.9805 12.1338 31.1498 12.1338C31.3191 12.1338 31.5125 12.2779 31.7302 12.5663C33.0871 15.296 34.7304 18.6326 36.66 22.5759C36.8304 22.9167 36.9894 23.0824 37.1372 23.0728C37.2572 23.0651 37.3697 22.9418 37.4748 22.703C38.5551 20.3055 39.372 18.6621 39.9256 17.7731C40.8458 16.2953 43.4819 12.5668 47.6103 12.5668H55.9358L52.9626 17.1709C52.1617 18.3368 51.1706 18.9197 49.9894 18.9197C48.2175 18.9197 44.7638 20.5615 43.4424 23.2025C42.5614 24.9632 41.0198 28.1635 38.8174 32.8032C38.497 33.7312 37.9064 34.1952 37.0455 34.1952C36.1846 34.1952 35.4438 33.291 34.8231 31.4827L31.7301 25.4841C31.5999 25.2189 31.4096 25.0862 31.1592 25.0862C30.9089 25.0862 30.7219 25.2189 30.5982 25.4841L27.5052 31.4827C26.8846 33.291 26.1438 34.1952 25.2828 34.1952C24.4219 34.1952 23.8313 33.7312 23.5109 32.8032C21.3086 28.1635 19.7669 24.9632 18.886 23.2025C17.5646 20.5615 14.1108 18.9197 12.339 18.9197C11.1577 18.9197 10.1666 18.3368 9.36576 17.1709Z" fill="url(#paint0_linear_18050_5683)"/>
<path d="M94.1232 16.5517L89.5206 -8.0784e-08H84.3488L79.741 16.5517L74.8242 -8.0784e-08H70L77.1087 22H82.4093L86.9141 6.12603L91.4575 22H96.758L103.805 -8.0784e-08H99.0426L94.1232 16.5517Z" fill="#1C1B17"/>
<path d="M111.725 0.928611C110.293 1.52894 109.24 2.58434 108.479 4.0176C107.909 5.07048 107.592 7.23844 107.561 10.5265V22H112.202V12.917H125.268V8.99507H112.202V7.81271C112.233 6.09493 112.87 4.97731 114.111 4.46256C114.712 4.14693 116.113 3.9865 118.275 3.92444H125.268V-8.0784e-08H117.702C115.127 -8.0784e-08 113.123 0.320698 111.725 0.928611Z" fill="#1C1B17"/>
<path d="M149.415 -8.0784e-08H143.813L139.189 7.27207L134.938 -8.0784e-08H129.277L136.388 10.8758L129.024 22H134.532L139.189 14.4432L143.969 22H149.415L142.051 10.8758L149.415 -8.0784e-08Z" fill="#1C1B17"/>
<path d="M105.102 32.11C104.588 32.11 104.108 32.0167 103.662 31.83C103.222 31.6433 102.835 31.3867 102.502 31.06C102.175 30.7267 101.918 30.34 101.732 29.9C101.545 29.4533 101.452 28.9767 101.452 28.47C101.452 27.9633 101.542 27.4933 101.722 27.06C101.908 26.62 102.165 26.2367 102.492 25.91C102.825 25.5767 103.212 25.32 103.652 25.14C104.092 24.9533 104.568 24.86 105.082 24.86C105.602 24.86 106.082 24.9533 106.522 25.14C106.962 25.32 107.345 25.5767 107.672 25.91C108.005 26.2367 108.265 26.62 108.452 27.06C108.638 27.5 108.732 27.9733 108.732 28.48C108.732 28.9867 108.638 29.46 108.452 29.9C108.265 30.34 108.005 30.7267 107.672 31.06C107.345 31.3867 106.962 31.6433 106.522 31.83C106.088 32.0167 105.615 32.11 105.102 32.11ZM105.082 30.84C105.535 30.84 105.928 30.74 106.262 30.54C106.595 30.34 106.855 30.0633 107.042 29.71C107.235 29.3567 107.332 28.9433 107.332 28.47C107.332 28.1233 107.278 27.8067 107.172 27.52C107.065 27.2333 106.912 26.9867 106.712 26.78C106.512 26.5667 106.275 26.4033 106.002 26.29C105.728 26.1767 105.422 26.12 105.082 26.12C104.642 26.12 104.252 26.22 103.912 26.42C103.578 26.6133 103.315 26.8867 103.122 27.24C102.935 27.5933 102.842 28.0033 102.842 28.47C102.842 28.8233 102.895 29.1467 103.002 29.44C103.115 29.7333 103.268 29.9833 103.462 30.19C103.662 30.3967 103.898 30.5567 104.172 30.67C104.452 30.7833 104.755 30.84 105.082 30.84ZM112.439 32.1C112.092 32.1 111.779 32.03 111.499 31.89C111.219 31.7433 110.995 31.5467 110.829 31.3C110.662 31.0533 110.572 30.77 110.559 30.45V28.74C110.572 28.42 110.662 28.1367 110.829 27.89C111.002 27.6367 111.225 27.4367 111.499 27.29C111.779 27.1433 112.092 27.07 112.439 27.07C112.885 27.07 113.285 27.18 113.639 27.4C113.992 27.62 114.269 27.92 114.469 28.3C114.675 28.68 114.779 29.11 114.779 29.59C114.779 30.0633 114.675 30.49 114.469 30.87C114.269 31.25 113.992 31.55 113.639 31.77C113.285 31.99 112.885 32.1 112.439 32.1ZM109.759 34.02V27.17H111.069V28.44L110.849 29.61L111.059 30.78V34.02H109.759ZM112.209 30.89C112.449 30.89 112.662 30.8367 112.849 30.73C113.035 30.6167 113.179 30.4633 113.279 30.27C113.385 30.07 113.439 29.84 113.439 29.58C113.439 29.3267 113.385 29.1033 113.279 28.91C113.179 28.71 113.035 28.5567 112.849 28.45C112.662 28.3367 112.449 28.28 112.209 28.28C111.975 28.28 111.765 28.3367 111.579 28.45C111.392 28.5567 111.245 28.71 111.139 28.91C111.039 29.1033 110.989 29.3267 110.989 29.58C110.989 29.84 111.039 30.07 111.139 30.27C111.245 30.4633 111.389 30.6167 111.569 30.73C111.755 30.8367 111.969 30.89 112.209 30.89ZM118.036 32.1C117.53 32.1 117.08 31.9933 116.686 31.78C116.293 31.56 115.98 31.26 115.746 30.88C115.52 30.5 115.406 30.0667 115.406 29.58C115.406 29.1 115.516 28.6733 115.736 28.3C115.963 27.92 116.27 27.62 116.656 27.4C117.043 27.1733 117.473 27.06 117.946 27.06C118.413 27.06 118.823 27.1667 119.176 27.38C119.536 27.5867 119.816 27.8733 120.016 28.24C120.223 28.6 120.326 29.01 120.326 29.47C120.326 29.5567 120.32 29.6467 120.306 29.74C120.3 29.8267 120.283 29.9267 120.256 30.04L116.196 30.05V29.07L119.646 29.06L119.116 29.47C119.103 29.1833 119.05 28.9433 118.956 28.75C118.87 28.5567 118.74 28.41 118.566 28.31C118.4 28.2033 118.193 28.15 117.946 28.15C117.686 28.15 117.46 28.21 117.266 28.33C117.073 28.4433 116.923 28.6067 116.816 28.82C116.716 29.0267 116.666 29.2733 116.666 29.56C116.666 29.8533 116.72 30.11 116.826 30.33C116.94 30.5433 117.1 30.71 117.306 30.83C117.513 30.9433 117.753 31 118.026 31C118.273 31 118.496 30.96 118.696 30.88C118.896 30.7933 119.07 30.6667 119.216 30.5L119.986 31.27C119.753 31.5433 119.466 31.75 119.126 31.89C118.793 32.03 118.43 32.1 118.036 32.1ZM124.475 32V29.23C124.475 28.9433 124.385 28.71 124.205 28.53C124.025 28.35 123.792 28.26 123.505 28.26C123.319 28.26 123.152 28.3 123.005 28.38C122.859 28.46 122.742 28.5733 122.655 28.72C122.575 28.8667 122.535 29.0367 122.535 29.23L122.025 28.97C122.025 28.59 122.105 28.26 122.265 27.98C122.432 27.6933 122.659 27.47 122.945 27.31C123.239 27.15 123.569 27.07 123.935 27.07C124.289 27.07 124.605 27.16 124.885 27.34C125.165 27.5133 125.385 27.7433 125.545 28.03C125.705 28.31 125.785 28.6133 125.785 28.94V32H124.475ZM121.225 32V27.17H122.535V32H121.225ZM130.112 32V30.89H131.942C132.268 30.89 132.522 30.79 132.702 30.59C132.888 30.39 132.982 30.1533 132.982 29.88C132.982 29.6933 132.942 29.5233 132.862 29.37C132.782 29.2167 132.662 29.0967 132.502 29.01C132.348 28.9167 132.162 28.87 131.942 28.87H130.112V27.77H131.792C132.072 27.77 132.295 27.7 132.462 27.56C132.635 27.42 132.722 27.21 132.722 26.93C132.722 26.6433 132.635 26.43 132.462 26.29C132.295 26.15 132.072 26.08 131.792 26.08H130.112V24.97H131.952C132.418 24.97 132.808 25.0567 133.122 25.23C133.442 25.3967 133.682 25.62 133.842 25.9C134.002 26.1733 134.082 26.4733 134.082 26.8C134.082 27.2 133.958 27.5467 133.712 27.84C133.472 28.1267 133.118 28.34 132.652 28.48L132.712 28.04C133.232 28.1867 133.632 28.43 133.912 28.77C134.198 29.1033 134.342 29.5067 134.342 29.98C134.342 30.3533 134.248 30.6933 134.062 31C133.882 31.3 133.615 31.5433 133.262 31.73C132.915 31.91 132.492 32 131.992 32H130.112ZM129.112 32V24.97H130.462V32H129.112ZM137.679 32.1C137.172 32.1 136.722 31.9933 136.329 31.78C135.936 31.56 135.622 31.26 135.389 30.88C135.162 30.5 135.049 30.0667 135.049 29.58C135.049 29.1 135.159 28.6733 135.379 28.3C135.606 27.92 135.912 27.62 136.299 27.4C136.686 27.1733 137.116 27.06 137.589 27.06C138.056 27.06 138.466 27.1667 138.819 27.38C139.179 27.5867 139.459 27.8733 139.659 28.24C139.866 28.6 139.969 29.01 139.969 29.47C139.969 29.5567 139.962 29.6467 139.949 29.74C139.942 29.8267 139.926 29.9267 139.899 30.04L135.839 30.05V29.07L139.289 29.06L138.759 29.47C138.746 29.1833 138.692 28.9433 138.599 28.75C138.512 28.5567 138.382 28.41 138.209 28.31C138.042 28.2033 137.836 28.15 137.589 28.15C137.329 28.15 137.102 28.21 136.909 28.33C136.716 28.4433 136.566 28.6067 136.459 28.82C136.359 29.0267 136.309 29.2733 136.309 29.56C136.309 29.8533 136.362 30.11 136.469 30.33C136.582 30.5433 136.742 30.71 136.949 30.83C137.156 30.9433 137.396 31 137.669 31C137.916 31 138.139 30.96 138.339 30.88C138.539 30.7933 138.712 30.6667 138.859 30.5L139.629 31.27C139.396 31.5433 139.109 31.75 138.769 31.89C138.436 32.03 138.072 32.1 137.679 32.1ZM141.461 32V25.16H142.771V32H141.461ZM140.331 28.32V27.17H143.901V28.32H140.331ZM146.629 32.1C146.189 32.1 145.793 31.99 145.439 31.77C145.086 31.55 144.809 31.25 144.609 30.87C144.409 30.49 144.309 30.0633 144.309 29.59C144.309 29.11 144.409 28.68 144.609 28.3C144.809 27.92 145.086 27.62 145.439 27.4C145.793 27.18 146.189 27.07 146.629 27.07C146.976 27.07 147.286 27.14 147.559 27.28C147.833 27.42 148.049 27.6167 148.209 27.87C148.376 28.1167 148.466 28.3967 148.479 28.71V30.45C148.466 30.77 148.376 31.0533 148.209 31.3C148.049 31.5467 147.833 31.7433 147.559 31.89C147.286 32.03 146.976 32.1 146.629 32.1ZM146.869 30.89C147.236 30.89 147.533 30.77 147.759 30.53C147.986 30.2833 148.099 29.9667 148.099 29.58C148.099 29.3267 148.046 29.1033 147.939 28.91C147.839 28.71 147.696 28.5567 147.509 28.45C147.329 28.3367 147.116 28.28 146.869 28.28C146.629 28.28 146.416 28.3367 146.229 28.45C146.049 28.5567 145.906 28.71 145.799 28.91C145.699 29.1033 145.649 29.3267 145.649 29.58C145.649 29.84 145.699 30.07 145.799 30.27C145.906 30.4633 146.049 30.6167 146.229 30.73C146.416 30.8367 146.629 30.89 146.869 30.89ZM148.029 32V30.7L148.239 29.52L148.029 28.36V27.17H149.329V32H148.029Z" fill="url(#paint1_linear_18050_5683)"/>
</g>
<defs>
<linearGradient id="paint0_linear_18050_5683" x1="57.0521" y1="29.0125" x2="-2.26909" y2="12.9281" gradientUnits="userSpaceOnUse">
<stop offset="0.0884597" stop-color="#5B39F2"/>
<stop offset="0.523166" stop-color="#FF350B"/>
<stop offset="1" stop-color="#FFA100"/>
</linearGradient>
<linearGradient id="paint1_linear_18050_5683" x1="145.852" y1="34.2719" x2="102.841" y2="16.8541" gradientUnits="userSpaceOnUse">
<stop offset="0.0884597" stop-color="#5B39F2"/>
<stop offset="0.523166" stop-color="#FF350B"/>
<stop offset="1" stop-color="#FFA100"/>
</linearGradient>
<clipPath id="clip0_18050_5683">
<rect width="158.301" height="34.1953" fill="white"/>
</clipPath>
</defs>
</svg>
