<svg xmlns="http://www.w3.org/2000/svg"
  xmlns:xlink="http://www.w3.org/1999/xlink" fill="none" version="1.1" width="130.00390625" height="80" viewBox="0 0 130.00390625 80">
  <defs>
    <linearGradient x1="0.9153505563735962" y1="0.8484381437301636" x2="-0.08425696155112683" y2="0.6997362567637162" id="wfx_logo">
      <stop offset="8.845974504947662%" stop-color="#5B39F2" stop-opacity="1"/>
      <stop offset="52.31660604476929%" stop-color="#FF350B" stop-opacity="1"/>
      <stop offset="100%" stop-color="#FFA100" stop-opacity="1"/>
    </linearGradient>
  </defs>
  <g>
    <g></g>
    <g>
      <g>
        <g>
          <path d="M0.97123486,32.9699364125Q0.47039333,31.9944593125,0,30.4527827095L7.4370804,30.4527934865Q11.482328,30.3070544325,13.026869,31.3268574525Q14.392478,32.2285204125,15.892246,33.7450755125Q16.307627,34.1108420125,16.030695,34.7141905125L14.912527,37.1569152125Q14.827375,37.2792930125,14.640861,37.3207817125C14.510637,37.3497486125,14.384264,37.2867441125,14.322842,37.2561207125L14.322826,37.2561130125C14.296284,37.2428803125,14.281877,37.2356973125,14.284534,37.2446060125Q12.085462,33.861688612500004,8.5158129,33.861688612500004L2.6808689,33.861688612500004Q1.4720762,33.9454131125,0.97123486,32.9699364125ZM33.895954,32.9699364125Q34.396793,31.9944593125,34.867188,30.4527827095L27.430107,30.4527934865Q23.384859,30.3070544325,21.840319,31.3268574525Q20.474709,32.2285204125,18.974941,33.7450755125Q18.559561,34.1108420125,18.836493,34.7141905125L19.95466,37.1569152125Q20.039812,37.2792930125,20.226326,37.3207817125C20.35655,37.3497486125,20.482924,37.2867441125,20.544346,37.2561207125C20.570904,37.2428803125,20.585312,37.2356973125,20.582653,37.2446060125Q22.781727,33.861688612500004,26.351376,33.861688612500004L32.186317,33.861688612500004Q33.395111,33.9454131125,33.895954,32.9699364125ZM5.239408,40.0404796125L3.5761719,37.4648900125L8.233551,37.4648900125C10.543007,37.4648900125,12.017712,39.5506668125,12.532472,40.3773432125Q12.997025,41.1233883125,13.903474,43.1352043125Q13.991652,43.3356003125,14.092341,43.3421003125Q14.216331,43.3501013125,14.359294,43.0641023125Q15.978477,39.7551899125,17.117111,37.4645886125Q17.283644,37.2226562125,17.425688,37.2226562125Q17.567734,37.2226562125,17.750351,37.4645886125Q18.888985,39.7551899125,20.508169,43.0641023125Q20.651133,43.3501013125,20.77512,43.3421003125Q20.875816,43.3356003125,20.963989,43.1352043125Q21.870443,41.1233883125,22.334986,40.3773432125C22.849756,39.5506668125,24.324453,37.4648900125,26.633913,37.4648900125L31.291294,37.4648900125L29.628057,40.0404796125Q28.956032,41.0187953125,27.964808,41.0187953125C26.973589,41.0187953125,25.041533,41.9372333125,24.302317,43.4146623125Q23.563101,44.8920973125,21.715046,48.7853983125Q21.446236,49.5640753125,20.723824,49.5640753125Q20.001408,49.5640753125,19.480595,48.0466803125L17.75034,44.6910213125Q17.641029,44.4684143125,17.430977,44.4684143125Q17.220922,44.4684143125,17.117125,44.6910213125L15.386871,48.0466803125Q14.866054,49.5640753125,14.14364,49.5640753125Q13.421228,49.5640753125,13.152413,48.7853983125Q11.304365,44.8920973125,10.565149,43.4146623125C9.8259315,41.9372333125,7.8938718,41.0187953125,6.9026527,41.0187953125Q5.9114351,41.0187953125,5.239408,40.0404796125Z" fill-rule="evenodd" fill="url(#wfx_logo)" fill-opacity="1" style="mix-blend-mode:passthrough"/>
        </g>
      </g>
      <g>
        <g transform="matrix(1,0,0,-1,0,94.75050449371338)">
          <path d="M49.95574665551758,50.25268844685669L47.514158655517576,58.99415624685669L44.77064945551758,58.99415624685669L42.32635025551758,50.25268844685669L39.718103155517575,58.99415624685669L37.15901565551758,58.99415624685669L40.92999555551758,47.37525224685669L43.74184365551758,47.37525224685669L46.131479255517576,55.75880284685669L48.54162865551758,47.37525224685669L51.35343565551758,47.37525224685669L55.09160065551758,58.99415624685669L52.56532765551758,58.99415624685669L49.95574665551758,50.25268844685669Z" fill="#1C1B17" fill-opacity="1" style="mix-blend-mode:passthrough"/>
        </g>
        <g transform="matrix(1,0,0,-1,0,94.75050449371338)">
          <path d="M57.9008095967041,47.45856071285669C57.5660330967041,47.50909618685669,57.264112796704104,47.628012956856686,57.0099761967041,47.77828508685669C56.3199918867041,48.25103354685669,55.9838809967041,48.94235204685669,55.9838809967041,49.88376284685669C55.9838809967041,50.454830146856686,56.1191425967041,50.96176934685669,56.3882898067041,51.416755646856686C56.6561027767041,51.85397864685669,57.026362696704105,52.15585704685669,57.4799725967041,52.32664394685669C57.867994896704104,52.46057084685669,58.5265402967041,52.52886914685669,59.4515230967041,52.52886914685669L62.2975205967041,52.52886914685669C62.2975205967041,53.11636494685669,62.1800212967041,53.52214954685669,61.9436468967041,53.74080274685669C61.7072729967041,53.94161034685669,61.2359003967041,54.04276514685669,60.5295290967041,54.04276514685669L56.5891391067041,54.04276514685669L56.5891391067041,55.862625646856685L60.5295290967041,55.862625646856685C61.2359003967041,55.862625646856685,61.7072729967041,55.84486244685669,61.9777965967041,55.812090446856686C62.248318696704104,55.79432824685669,62.5147561967041,55.72602984685669,62.8030418967041,55.64405584685669C64.0832738967041,55.15354444685669,64.7049178967041,53.99222894685669,64.6202334967041,52.15585704685669L64.6202334967041,47.37525224685669L59.7220458967041,47.37525224685669C58.8462650967041,47.37525224685669,58.239630696704104,47.40935951885669,57.9008095967041,47.45856071285669ZM62.2975205967041,49.19244424685669L62.2975205967041,50.72401904685669L59.216524596704105,50.72401904685669C58.9473773967041,50.72401904685669,58.7437762967041,50.65847304685669,58.5771176967041,50.50544904685669C58.4254278967041,50.37285594685669,58.339367396704105,50.18705914685669,58.339367396704105,49.93563244685669C58.339367396704105,49.68153764685669,58.4431902967041,49.48073004685669,58.644039596704104,49.36181304685669C58.8298782967041,49.24297974685669,59.1482269967041,49.19244424685669,59.6209337967041,49.19244424685669L62.2975205967041,49.19244424685669Z" fill="#1C1B17" fill-opacity="1" style="mix-blend-mode:passthrough"/>
        </g>
        <g transform="matrix(1,0,0,-1,0,94.75050449371338)">
          <path d="M66.79385185241699,47.37525224685669L69.13295175241699,47.37525224685669L69.13295175241699,58.99415624685669L66.79385185241699,58.99415624685669L66.79385185241699,47.37525224685669Z" fill="#1C1B17" fill-opacity="1" style="mix-blend-mode:passthrough"/>
        </g>
        <g transform="matrix(1,0,0,-1,0,94.75050449371338)">
          <path d="M71.42430877685547,47.37525224685669L73.76478477685546,47.37525224685669L73.76478477685546,58.99415624685669L71.42430877685547,58.99415624685669L71.42430877685547,47.37525224685669Z" fill="#1C1B17" fill-opacity="1" style="mix-blend-mode:passthrough"/>
        </g>
        <g transform="matrix(1,0,0,-1,0,94.75050449371338)">
          <path d="M78.14244361816407,58.50372924685669C77.38416161816406,58.186673246856685,76.82672869816406,57.62928124685669,76.42365413816407,56.87233404685669C76.12173390816406,56.31627704685669,75.95365761916406,55.17130664685669,75.93727111816406,53.43475484685669L75.93727111816406,47.37525224685669L78.39524601816406,47.37525224685669L78.39524601816406,52.172285046856686L85.31547741816406,52.172285046856686L85.31547741816406,54.24357224685669L78.39524601816406,54.24357224685669L78.39524601816406,54.86801104685669C78.41163251816407,55.77522994685669,78.74907801816406,56.36547804685669,79.40628911816407,56.63733534685669C79.72463751816406,56.80403664685669,80.46653321816406,56.88876204685669,81.61146161816406,56.92153594685669L85.31547741816406,56.92153594685669L85.31547741816406,58.99415624685669L81.30816551816406,58.99415624685669C79.94458341816406,58.99415624685669,78.88300511816406,58.82478824685669,78.14244361816407,58.50372924685669Z" fill="#1C1B17" fill-opacity="1" style="mix-blend-mode:passthrough"/>
        </g>
        <g transform="matrix(1,0,0,-1,0,94.75050449371338)">
          <path d="M93.1278547793457,55.22184224685669C92.87509347934571,55.440495946856686,92.5553693793457,55.60853054685669,92.1687226793457,55.70826764685669C91.7807006793457,55.812090446856686,91.2423648793457,55.862625646856685,90.5359937793457,55.862625646856685L87.0833625793457,55.862625646856685L87.0833625793457,47.37525224685669L89.42383837934571,47.37525224685669L89.42383837934571,54.04276514685669L90.0810076793457,54.04276514685669C90.6698796793457,54.04276514685669,91.0743300793457,53.94161034685669,91.27513737934571,53.72304054685669C91.4951252793457,53.50438694685669,91.59486197934571,53.08359144685669,91.59486197934571,52.47833394685669L91.59486197934571,52.02334784685669L93.8178381793457,52.02334784685669L93.8178381793457,52.84725954685669C93.8178381793457,53.50438694685669,93.7672614793457,53.99222894685669,93.66481447934571,54.34606124685669C93.5664119793457,54.68213034685669,93.3806152793457,54.98550984685669,93.1278547793457,55.22184224685669Z" fill="#1C1B17" fill-opacity="1" style="mix-blend-mode:passthrough"/>
        </g>
        <g transform="matrix(1,0,0,-1,0,94.75050449371338)">
          <path d="M96.83316372631836,55.52380414685669C96.30987992631836,55.30523444685669,95.87265632631836,54.93355654685669,95.48463404631836,54.41435904685669C94.94492196631836,53.65474274685669,94.67715072631836,52.76253274685669,94.67715072631836,51.73506214685669C94.67715072631836,50.15428594685669,95.18267214631835,48.95744594685669,96.22515372631835,48.16630750685669C96.59541352631835,47.88077366685669,97.00119832631836,47.694976626856686,97.42203542631836,47.55971503685669C97.84283062631836,47.44355017685669,98.38116672631836,47.37525224685669,99.05609842631836,47.37525224685669L102.15348052631836,47.37525224685669L102.15348052631836,49.19244424685669L99.32524582631837,49.19244424685669C98.61754082631836,49.19244424685669,98.11201952631836,49.31261194685669,97.79229522631836,49.53126524685669C97.46986052631836,49.76626374685669,97.28810812631836,50.17071434685669,97.25258302631836,50.72401904685669L102.15348052631836,50.72401904685669L102.15348052631836,52.52886914685669L97.25258302631836,52.52886914685669C97.30316022631835,53.11636494685669,97.45480822631836,53.50438694685669,97.72533132631835,53.72304054685669C97.97671632631835,53.94161034685669,98.41531562631836,54.04276514685669,99.05609842631836,54.04276514685669L102.15348052631836,54.04276514685669L102.15348052631836,55.862625646856685L98.88668772631836,55.862625646856685C98.04505562631836,55.862625646856685,97.35369562631836,55.74237394685669,96.83316372631836,55.52380414685669Z" fill="#1C1B17" fill-opacity="1" style="mix-blend-mode:passthrough"/>
        </g>
        <g transform="matrix(1,0,0,-1,0,94.75050449371338)">
          <path d="M105.65546749829102,55.52380414685669C105.13351789829102,55.30523444685669,104.67857359829101,54.93355654685669,104.30964803829102,54.41435904685669C103.76860168829101,53.65474274685669,103.49945449829102,52.76253274685669,103.49945449829102,51.73506214685669C103.49945449829102,50.15428594685669,104.00497591829101,48.95744594685669,105.04745749829101,48.16630750685669C105.42046929829101,47.88077366685669,105.80711559829102,47.694976626856686,106.22791079829102,47.55971503685669C106.65012359829102,47.44355017685669,107.20484639829101,47.37525224685669,107.87840219829101,47.37525224685669L110.97578429829102,47.37525224685669L110.97578429829102,49.19244424685669L108.13116359829101,49.19244424685669C107.42479249829101,49.19244424685669,106.91927099829101,49.31261194685669,106.59821249829102,49.53126524685669C106.29349849829102,49.76626374685669,106.11041189829102,50.17071434685669,106.07763889829101,50.72401904685669L110.97578429829102,50.72401904685669L110.97578429829102,52.52886914685669L106.07763889829101,52.52886914685669C106.12683989829101,53.11636494685669,106.27711199829102,53.50438694685669,106.53124859829101,53.72304054685669C106.78400919829102,53.94161034685669,107.23899559829101,54.04276514685669,107.87840219829101,54.04276514685669L110.97578429829102,54.04276514685669L110.97578429829102,55.862625646856685L107.69393969829102,55.862625646856685C106.85097289829102,55.862625646856685,106.17737529829101,55.74237394685669,105.65546749829102,55.52380414685669Z" fill="#1C1B17" fill-opacity="1" style="mix-blend-mode:passthrough"/>
        </g>
        <g transform="matrix(1,0,0,-1,0,94.75050449371338)">
          <path d="M130.0029854309082,58.99415624685669L127.0053396309082,58.99415624685669L124.5310192309082,55.15354444685669L122.2561314309082,58.99415624685669L119.22704703090821,58.99415624685669L123.0321760309082,53.25029234685669L119.0917854309082,47.37525224685669L122.0388953309082,47.37525224685669L124.5310192309082,51.366219746856686L127.08868933090821,47.37525224685669L130.0029854309082,47.37525224685669L126.0626359309082,53.25029234685669L130.0029854309082,58.99415624685669Z" fill="#1C1B17" fill-opacity="1" style="mix-blend-mode:passthrough"/>
        </g>
      </g>
    </g>
  </g>
</svg>