<svg width="25" height="22" viewBox="0 0 25 22" fill="none" xmlns="http://www.w3.org/2000/svg">
<path fill-rule="evenodd" clip-rule="evenodd" d="M24.2024 18.6149L13.6331 1.53801C13.0793 0.614934 11.8793 0.614934 11.3255 1.53801L0.756222 18.6149C0.110068 19.6765 0.756222 21.1534 1.91007 21.1534H23.0485C24.2024 21.1534 24.8947 19.6765 24.2024 18.6149ZM12.4793 17.4611C11.6947 17.4611 11.0947 16.8611 11.0947 16.0765C11.0947 15.2919 11.6947 14.6919 12.4793 14.6919C13.2639 14.6919 13.8639 15.2919 13.8639 16.0765C13.8639 16.8611 13.2639 17.4611 12.4793 17.4611ZM13.8639 13.3072C13.8639 13.5842 13.6793 13.7688 13.4024 13.7688H11.5562C11.2793 13.7688 11.0947 13.5842 11.0947 13.3072V7.30724C11.0947 7.03032 11.2793 6.8457 11.5562 6.8457H13.4024C13.6793 6.8457 13.8639 7.03032 13.8639 7.30724V13.3072Z" fill="#FFB75D"/>
</svg>
