<svg width="80" height="80" viewBox="0 0 80 80" fill="none" xmlns="http://www.w3.org/2000/svg">
<path d="M76.7162 44.6389C74.2662 61.7354 59.6733 74.1003 42.9137 74.2458L41.7653 68.6796L41.191 65.8851L40.234 61.2224L44.9732 54.3777L50.08 47.0124L35.9082 31.4471L46.7342 22.1524L48.8703 20.3149L47.0328 13.9602L46.1829 11.0355L44.5139 5.30859C45.4862 5.36219 46.4739 5.46172 47.4539 5.60719C66.3189 8.3022 79.4188 25.7815 76.7162 44.6389Z" fill="#FFEDD5"/>
<path d="M38.32 61.7727L42.9138 74.2525C41.2141 74.5204 39.4684 74.6736 37.6922 74.6889C18.6357 74.8267 3.07814 59.4988 2.93267 40.4423C2.79485 22.3888 16.5608 7.46673 34.2162 5.83594L40.7624 20.023L29.6072 32.9698L45.938 46.2458L38.32 61.7727Z" fill="#FFEDD5"/>
<path d="M70.5603 32.3809C69.6033 28.7594 67.9802 25.406 65.7216 22.3971C63.4706 19.3882 60.699 16.8846 57.4911 14.9552C54.1759 12.9569 50.5315 11.663 46.6574 11.1041C46.4966 11.0811 46.3282 11.0581 46.1674 11.0352L47.0326 13.9599C50.2482 14.5111 53.2878 15.6442 56.0746 17.321C58.9687 19.0666 61.4723 21.3329 63.5165 24.0508C65.5531 26.7688 67.0308 29.8084 67.8883 33.0776C68.7841 36.4617 68.9831 39.9529 68.4778 43.4519C67.9802 46.9508 66.8087 50.243 65.0019 53.2442C63.2562 56.146 60.99 58.6419 58.272 60.6861C55.554 62.7227 52.5145 64.2004 49.2452 65.0579C46.6115 65.7546 43.9165 66.0302 41.1985 65.8771L41.7727 68.6716C44.529 68.7559 47.2699 68.442 49.9496 67.7299C53.571 66.7729 56.9245 65.1498 59.9334 62.8911C62.9423 60.6402 65.4459 57.8686 67.3753 54.6606C69.3736 51.3378 70.6675 47.7011 71.2264 43.827C71.77 39.9836 71.5556 36.1248 70.5603 32.3809Z" fill="url(#paint0_linear_12487_1218)"/>
<path d="M40.9458 68.9165C39.8586 69.0467 38.7561 69.1156 37.6383 69.1309C33.7336 69.1615 29.9361 68.4265 26.3529 66.9412C22.8923 65.5095 19.7839 63.4423 17.1042 60.8085C14.4245 58.1748 12.319 55.0893 10.8337 51.6593C9.29475 48.0991 8.50615 44.3169 8.47553 40.4122C8.4449 36.5075 9.17991 32.71 10.6652 29.1268C12.0969 25.6662 14.1565 22.5577 16.7979 19.878C19.4317 17.1983 22.5171 15.0929 25.9472 13.6075C29.3542 12.1375 32.968 11.3489 36.6966 11.2571L37.9752 14.021C37.7225 14.0133 37.4699 14.0133 37.2172 14.0133C33.6877 14.0363 30.2653 14.756 27.0497 16.1494C23.9412 17.4893 21.1543 19.3957 18.7732 21.8227C16.3845 24.2421 14.524 27.0596 13.2224 30.1834C11.8826 33.422 11.2165 36.852 11.2394 40.3892C11.2624 43.9264 11.9821 47.3411 13.3679 50.5644C14.7077 53.6729 16.6142 56.4521 19.0412 58.8409C21.4606 61.2296 24.2781 63.0901 27.4019 64.3917C30.6405 65.7315 34.0705 66.3976 37.6 66.3746C38.3886 66.367 39.1696 66.3287 39.9428 66.2521L40.9458 68.9165Z" fill="url(#paint1_linear_12487_1218)"/>
<defs>
<linearGradient id="paint0_linear_12487_1218" x1="7.58389" y1="11.0352" x2="75.6788" y2="16.4095" gradientUnits="userSpaceOnUse">
<stop stop-color="#EE9B27"/>
<stop offset="0.473958" stop-color="#E14D28"/>
<stop offset="0.958333" stop-color="#6F84B8"/>
</linearGradient>
<linearGradient id="paint1_linear_12487_1218" x1="7.58389" y1="11.0352" x2="75.6788" y2="16.4095" gradientUnits="userSpaceOnUse">
<stop stop-color="#EE9B27"/>
<stop offset="0.473958" stop-color="#E14D28"/>
<stop offset="0.958333" stop-color="#6F84B8"/>
</linearGradient>
</defs>
</svg>
