<svg width="16" height="14" viewBox="0 0 16 14" fill="none" xmlns="http://www.w3.org/2000/svg">
<path fill-rule="evenodd" clip-rule="evenodd" d="M15.8016 12.0766L8.75543 0.692007C8.3862 0.0766226 7.5862 0.0766226 7.21697 0.692007L0.170814 12.0766C-0.259955 12.7843 0.170814 13.7689 0.940045 13.7689H15.0324C15.8016 13.7689 16.2631 12.7843 15.8016 12.0766ZM7.9862 11.3074C7.46312 11.3074 7.06312 10.9074 7.06312 10.3843C7.06312 9.86124 7.46312 9.46124 7.9862 9.46124C8.50928 9.46124 8.90928 9.86124 8.90928 10.3843C8.90928 10.9074 8.50928 11.3074 7.9862 11.3074ZM8.90928 8.53816C8.90928 8.72278 8.7862 8.84585 8.60158 8.84585H7.37081C7.1862 8.84585 7.06312 8.72278 7.06312 8.53816V4.53816C7.06312 4.35355 7.1862 4.23047 7.37081 4.23047H8.60158C8.7862 4.23047 8.90928 4.35355 8.90928 4.53816V8.53816Z" fill="#FFFDFA"/>
</svg>
