<svg width="80" height="68" viewBox="0 0 80 68" fill="none" xmlns="http://www.w3.org/2000/svg">
<path fill-rule="evenodd" clip-rule="evenodd" d="M79.0079 59.3851L43.7771 2.46199C41.931 -0.614934 37.931 -0.614934 36.0848 2.46199L0.854072 59.3851C-1.29977 62.9235 0.854072 67.8466 4.70023 67.8466H75.1618C79.0079 67.8466 81.3156 62.9235 79.0079 59.3851ZM39.931 55.5389C37.3156 55.5389 35.3156 53.5389 35.3156 50.9235C35.3156 48.3081 37.3156 46.3081 39.931 46.3081C42.5464 46.3081 44.5464 48.3081 44.5464 50.9235C44.5464 53.5389 42.5464 55.5389 39.931 55.5389ZM44.5464 41.6928C44.5464 42.6158 43.931 43.2312 43.0079 43.2312H36.8541C35.931 43.2312 35.3156 42.6158 35.3156 41.6928V21.6928C35.3156 20.7697 35.931 20.1543 36.8541 20.1543H43.0079C43.931 20.1543 44.5464 20.7697 44.5464 21.6928V41.6928Z" fill="url(#paint0_linear_6861_2649)"/>
<defs>
<linearGradient id="paint0_linear_6861_2649" x1="-1.12929" y1="0.154301" x2="85.1059" y2="7.56003" gradientUnits="userSpaceOnUse">
<stop stop-color="#EE9B27"/>
<stop offset="0.473958" stop-color="#E14D28"/>
<stop offset="0.958333" stop-color="#6F84B8"/>
</linearGradient>
</defs>
</svg>
